<svg xmlns="http://www.w3.org/2000/svg" width="68" height="66" viewBox="0 0 68 66">
    <g fill="none" fill-rule="evenodd">
        <g fill-rule="nonzero">
            <g>
                <path fill="#000" d="M65.505 32.407c-.81-.156-1.633.007-2.318.46-.568.374-.984.91-1.2 1.536l-3.52-1.511c.006-.237.01-.47.01-.698 0-2.034-.26-4.055-.77-6.012l1.579-1.053c1 .862 2.455 1.12 3.729.576 1.713-.732 2.534-2.682 1.868-4.438l-.743-1.961c-.674-1.778-2.613-2.715-4.413-2.134-.911.294-1.645.921-2.065 1.767-.239.48-.36.996-.36 1.514l-1.791.246c-.245-.442-.514-.89-.8-1.337-.296-.462-.917-.6-1.387-.309s-.61.902-.314 1.363c.338.527.648 1.055.92 1.57.274.516.852.809 1.436.729l3.23-.444c.3-.04.566-.212.722-.467.157-.255.188-.565.086-.845-.139-.38-.116-.79.065-1.152.18-.362.494-.63.885-.757.759-.245 1.611.18 1.902.946l.743 1.961c.288.76-.065 1.627-.786 1.935-.69.295-1.503.042-1.89-.587-.144-.232-.377-.396-.646-.453-.27-.058-.55-.004-.779.147l-2.68 1.787c-.496.331-.723.937-.562 1.507.537 1.915.81 3.9.81 5.901 0 .328-.008.67-.025 1.019-.026.567.31 1.1.838 1.326l5.024 2.157c.28.12.599.109.869-.03.27-.14.461-.391.52-.686l.16-.797c.055-.278.217-.518.456-.676.24-.158.527-.215.81-.16.583.112.965.67.85 1.245l-.823 4.126c-.058.288-.227.533-.479.69-.25.158-.549.206-.84.136-.55-.133-.903-.712-.787-1.29l.022-.11c.059-.298-.024-.606-.225-.836-.202-.23-.502-.357-.808-.342l-5.434.243c-.575.026-1.084.405-1.265.945-.504 1.494-1.172 2.937-1.987 4.29-.303.504-.25 1.143.133 1.59l2.404 2.807c.178.208.437.335.713.35.277.015.548-.083.749-.27.539-.505 1.358-.548 1.948-.104.32.24.524.588.577.98.053.391-.052.78-.297 1.093l-.696.895c-.5.643-1.435.808-2.084.37-.55-.374-.786-1.07-.573-1.693.167-.485-.071-1.015-.548-1.22l-3.463-1.496c-.55-.238-1.194-.103-1.6.335-1.544 1.667-3.327 3.087-5.3 4.22-.498.287-.77.854-.677 1.413l.886 5.313c.05.296.233.554.498.701.266.148.585.168.868.057l.767-.302c.277-.108.578-.101.85.02.27.122.473.342.571.62.186.526-.117 1.132-.674 1.351l-3.917 1.54c-.277.11-.578.102-.85-.02-.27-.12-.474-.341-.572-.62-.185-.525.117-1.13.674-1.35l.106-.042c.287-.112.505-.348.592-.64.086-.29.033-.604-.147-.851l-3.16-4.353c-.335-.461-.935-.675-1.493-.533-1.843.47-3.748.708-5.662.708-1.516 0-3.035-.15-4.516-.447-.565-.113-1.153.13-1.463.608l-3.163 4.877c-.164.253-.203.565-.105.849.098.283.322.508.608.611l.112.04c.384.138.69.414.863.779.173.364.19.772.05 1.15-.04.108-.06.223-.06.339 0 .373-.112.657-.316.797-.204.14-.513.147-.87.018l-3.886-1.393c-.778-.278-1.193-1.131-.924-1.901.128-.367.405-.665.778-.84.394-.185.852-.208 1.257-.063l.089.032c.29.104.612.071.874-.089.263-.16.436-.43.47-.73l.644-5.716c.063-.563-.239-1.115-.752-1.376-2.35-1.193-4.453-2.771-6.25-4.69-.396-.423-1.024-.561-1.563-.344L11.1 48.736c-.263.106-.468.317-.565.58-.096.263-.074.554.06.8.3.554.124 1.232-.41 1.577-.552.357-1.323.19-1.72-.371l-1.215-1.72c-.39-.55-.297-1.29.211-1.684.263-.203.589-.292.917-.25.331.041.624.208.825.469.182.236.462.38.763.392.3.011.592-.111.792-.333l3.34-3.711c.392-.436.462-1.07.175-1.581-.36-.637-.693-1.308-.993-1.993-.22-.502-.81-.734-1.32-.518-.51.215-.747.796-.528 1.298.269.614.563 1.217.877 1.799l-2.393 2.658c-.384-.232-.818-.383-1.28-.442-.87-.11-1.729.125-2.42.66-1.34 1.039-1.612 2.956-.617 4.364l1.215 1.72c1.013 1.433 3.021 1.835 4.476.895 1.088-.704 1.612-1.93 1.429-3.125l3.496-1.41c1.796 1.853 3.86 3.402 6.147 4.612l-.478 4.246c-.574-.016-1.152.101-1.677.347-.864.406-1.508 1.11-1.814 1.982-.622 1.782.337 3.756 2.137 4.401l3.886 1.393c.39.14.782.209 1.16.209.568 0 1.104-.157 1.552-.465.703-.484 1.124-1.295 1.17-2.244.26-.826.2-1.706-.174-2.496-.24-.507-.591-.94-1.027-1.274l2.361-3.64c3.39.62 6.926.529 10.267-.263l2.294 3.16c-.903.804-1.278 2.068-.864 3.244.28.793.861 1.422 1.637 1.77.765.344 1.65.365 2.431.058l3.918-1.54c1.565-.616 2.368-2.3 1.828-3.834-.28-.793-.861-1.422-1.637-1.77-.636-.286-1.357-.349-2.03-.185l-.622-3.724c1.882-1.124 3.599-2.49 5.114-4.07l2.34 1.01c-.066 1.182.491 2.352 1.514 3.045 1.543 1.045 3.661.695 4.822-.795l.696-.895c.571-.733.817-1.641.693-2.556-.123-.915-.602-1.728-1.348-2.29-1.088-.818-2.509-.928-3.678-.361l-1.543-1.802c.72-1.248 1.329-2.562 1.812-3.918l3.944-.177c.195 1.182 1.071 2.178 2.3 2.475.83.2 1.684.062 2.402-.389.71-.444 1.208-1.164 1.37-1.975l.824-4.127c.328-1.644-.765-3.243-2.437-3.565zM6.477 34.838l3.769.848c.082.512.183 1.03.303 1.548.104.456.52.766.98.766.072 0 .147-.008.22-.024.542-.119.883-.643.761-1.172-.138-.602-.25-1.204-.334-1.791-.079-.56-.51-1.02-1.072-1.146l-5.337-1.202c-.296-.067-.609.001-.848.185-.24.184-.38.464-.383.761l-.006.61c-.006.682-.58 1.237-1.28 1.237-.333 0-.645-.127-.88-.358-.235-.23-.362-.536-.359-.861l.035-3.782c.003-.347.154-.686.414-.93.245-.23.554-.354.88-.345.68.018 1.229.571 1.225 1.235-.002.3.138.585.379.772.24.187.556.257.856.188l5.3-1.212c.56-.129.99-.59 1.067-1.15.391-2.827 1.332-5.516 2.796-7.99.296-.5.238-1.131-.145-1.57L12.29 16.56c-.198-.226-.488-.353-.795-.344-.304.008-.589.151-.773.388l-.219.283c-.163.21-.402.343-.672.374-.268.03-.533-.047-.742-.218-.396-.321-.45-.93-.12-1.356l1.684-2.17c.327-.422.945-.506 1.377-.187.404.298.508.859.236 1.276-.158.242-.2.54-.113.814.086.275.292.498.562.612l3.534 1.49c.548.232 1.187.098 1.591-.333 1.609-1.72 3.474-3.171 5.543-4.315.502-.278.781-.837.696-1.392l-.814-5.283c-.045-.294-.225-.552-.489-.702-.263-.15-.582-.174-.866-.068l-.771.29c-.278.104-.58.093-.85-.031-.268-.124-.468-.345-.562-.623-.179-.524.132-1.12.692-1.331l3.938-1.477c.278-.105.58-.094.849.03.269.125.469.346.563.623.178.524-.132 1.121-.693 1.332l-.106.04c-.288.108-.51.339-.6.626-.09.288-.041.6.135.848l3.1 4.358c.328.461.924.681 1.485.548 1.747-.418 3.554-.63 5.373-.63.594 0 1.126-.364 1.324-.906l1.026-2.802c.093-.25.076-.528-.046-.767s-.339-.419-.6-.498c-.748-.228-1.223-.944-1.13-1.703.048-.403.266-.77.61-1.034.364-.277.827-.404 1.274-.349l1.41.173c.914.113 1.58.9 1.484 1.757-.074.662-.549 1.198-1.21 1.367-.483.123-.8.575-.744 1.06l.357 3.036c.068.579.507 1.052 1.092 1.178 2.246.481 4.398 1.297 6.396 2.423.5.283 1.137.234 1.584-.12l4.253-3.367c.237-.188.374-.47.372-.767-.002-.297-.141-.578-.38-.763l-.647-.5c-.233-.181-.377-.44-.404-.73-.027-.289.067-.57.264-.79.372-.415 1.057-.457 1.528-.094l3.304 2.56c.233.18.377.439.404.728.027.29-.067.57-.264.79-.373.415-1.058.457-1.528.094l-.089-.069c-.241-.187-.558-.256-.858-.186-.3.07-.55.27-.68.544l-2.278 4.823c-.241.51-.132 1.124.271 1.526.143.143.284.29.452.469.376.398 1.012.424 1.421.057.408-.367.435-.987.059-1.386l-.203-.213 1.654-3.503c1.158.369 2.46.064 3.293-.866.562-.628.83-1.43.752-2.258-.076-.816-.498-1.577-1.156-2.086L53.527 4.3c-1.32-1.021-3.206-.872-4.292.34-.563.628-.83 1.43-.752 2.259.063.68.366 1.32.845 1.81l-2.98 2.359c-1.946-1.055-4.021-1.842-6.18-2.344l-.22-1.881c1.021-.552 1.738-1.567 1.867-2.727C42.03 2.202 40.58.446 38.584.2l-1.41-.173c-.974-.12-1.981.153-2.763.75-.77.587-1.257 1.42-1.37 2.347-.164 1.347.473 2.634 1.58 3.361l-.583 1.589c-1.694.028-3.377.225-5.017.588l-2.25-3.164c.914-.785 1.306-2.034.908-3.206-.269-.791-.842-1.423-1.612-1.778-.76-.35-1.646-.383-2.43-.089l-3.938 1.477c-1.574.59-2.4 2.25-1.88 3.78.27.79.842 1.422 1.613 1.778.632.291 1.351.363 2.028.209l.57 3.702c-1.985 1.142-3.79 2.547-5.378 4.184l-2.27-.958c.185-1.048-.226-2.16-1.138-2.832-.638-.47-1.425-.671-2.217-.564-.792.107-1.494.51-1.976 1.131l-1.683 2.17c-.986 1.27-.794 3.048.435 4.047.636.517 1.438.751 2.259.659.518-.058 1.01-.249 1.425-.545l1.523 1.745c-1.407 2.476-2.34 5.143-2.776 7.94l-3.89.89c-.472-1.15-1.615-1.983-2.95-2.017-.87-.022-1.694.295-2.33.893-.646.608-1.02 1.455-1.029 2.324L0 34.221c-.008.852.327 1.655.942 2.26.615.605 1.435.938 2.308.938 1.589 0 2.926-1.113 3.227-2.581z" transform="translate(-862 -135) translate(862 135)"/>
                <path fill="#D0313F" d="M29.3 30.035c.489-.251.675-.84.416-1.313-.26-.474-.866-.655-1.356-.403-2.397 1.23-5.13.905-6.496-.774-.767-.942-1.03-2.19-.743-3.514.302-1.389 1.165-2.685 2.43-3.65 1.265-.967 2.768-1.476 4.233-1.436 1.397.038 2.589.578 3.355 1.52 1.152 1.414 1.137 3.525-.037 5.378-.29.457-.142 1.056.33 1.336.473.28 1.09.137 1.38-.32 1.619-2.554 1.58-5.536-.097-7.597-1.141-1.402-2.873-2.204-4.874-2.259-1.935-.054-3.899.605-5.532 1.851-1.634 1.247-2.752 2.944-3.151 4.777-.412 1.897-.011 3.714 1.13 5.116C21.49 30.224 23.372 31 25.396 31c1.29 0 2.637-.315 3.903-.965zM49 20.5c0-1.93-2.019-3.5-4.5-3.5S40 18.57 40 20.5s2.019 3.5 4.5 3.5 4.5-1.57 4.5-3.5zm-6.907 0c0-.903 1.08-1.638 2.407-1.638 1.328 0 2.408.735 2.408 1.638 0 .903-1.08 1.638-2.408 1.638-1.327 0-2.407-.735-2.407-1.638zM37 37.5c0-2.481-2.019-4.5-4.5-4.5S28 35.019 28 37.5s2.019 4.5 4.5 4.5 4.5-2.019 4.5-4.5zm-7.047 0c0-1.404 1.143-2.547 2.547-2.547 1.404 0 2.547 1.143 2.547 2.547 0 1.404-1.142 2.547-2.547 2.547-1.404 0-2.547-1.143-2.547-2.547zM50 35.5c0-1.93-1.57-3.5-3.5-3.5S43 33.57 43 35.5s1.57 3.5 3.5 3.5 3.5-1.57 3.5-3.5zm-5.047 0c0-.853.694-1.547 1.547-1.547s1.546.694 1.546 1.547-.693 1.547-1.546 1.547c-.853 0-1.547-.694-1.547-1.547zM36.5 52c1.93 0 3.5-1.57 3.5-3.5S38.43 45 36.5 45 33 46.57 33 48.5s1.57 3.5 3.5 3.5zm0-5.007c.83 0 1.507.676 1.507 1.507 0 .83-.676 1.507-1.507 1.507-.83 0-1.507-.676-1.507-1.507 0-.83.676-1.507 1.507-1.507zM21.5 46c1.93 0 3.5-1.57 3.5-3.5S23.43 39 21.5 39 18 40.57 18 42.5s1.57 3.5 3.5 3.5zm0-5.064c.863 0 1.564.701 1.564 1.564 0 .863-.701 1.564-1.564 1.564-.863 0-1.564-.701-1.564-1.564 0-.863.701-1.564 1.564-1.564z" transform="translate(-862 -135) translate(862 135)"/>
                <path fill="#000" d="M42 30c0-.552-.466-1-1.04-1h-.92c-.574 0-1.04.448-1.04 1s.466 1 1.04 1h.92c.574 0 1.04-.448 1.04-1zM28.032 48h.936c.57 0 1.032-.448 1.032-1s-.462-1-1.032-1h-.936c-.57 0-1.032.448-1.032 1s.462 1 1.032 1zM19.956 34c.577 0 1.044-.448 1.044-1s-.467-1-1.044-1h-.912c-.577 0-1.044.448-1.044 1s.467 1 1.044 1h.912zM37.068 17c.515 0 .932-.448.932-1s-.417-1-.932-1h-1.136c-.515 0-.932.448-.932 1s.417 1 .932 1h1.136zM43.897 43c-.496 0-.897.448-.897 1s.401 1 .897 1h1.206c.496 0 .897-.448.897-1s-.401-1-.897-1h-1.206z" transform="translate(-862 -135) translate(862 135)"/>
            </g>
        </g>
    </g>
</svg>
