<svg xmlns="http://www.w3.org/2000/svg" xmlns:xlink="http://www.w3.org/1999/xlink" width="92" height="86" viewBox="0 0 92 86">
    <defs>
        <path id="ecofs02fva" d="M0 0.197L92 0.197 92 66.503 0 66.503z"/>
    </defs>
    <g fill="none" fill-rule="evenodd">
        <g>
            <g>
                <g>
                    <g transform="translate(-973 -806) translate(931 753) translate(42 53) translate(0 10)">
                        <mask id="d0sfsa46rb" fill="#fff">
                            <use xlink:href="#ecofs02fva"/>
                        </mask>
                        <path fill="#D0313F" d="M74.625 36.774l-7.385 7.344c-.098-.115-.2-.229-.31-.338l-9.539-9.485c-.526-.523-1.382-.523-1.909 0-.528.525-.528 1.375 0 1.9l9.54 9.484c.82.816.82 2.143 0 2.958-.821.815-2.155.815-2.975 0l-5.3-5.27c-.528-.526-1.384-.526-1.91 0-.528.523-.528 1.373 0 1.898l5.3 5.27.001.001c.397.395.615.92.615 1.479 0 .558-.218 1.082-.616 1.478-.396.395-.925.612-1.487.612-.561 0-1.09-.217-1.487-.612l-5.3-5.27c-.528-.525-1.383-.525-1.91 0-.528.524-.528 1.374 0 1.898l5.3 5.27c.82.815.82 2.143 0 2.957-.397.396-.925.614-1.487.614s-1.09-.218-1.487-.614l-5.301-5.27c-.527-.524-1.382-.524-1.91 0-.527.525-.527 1.374 0 1.9l5.302 5.27c.82.815.82 2.142 0 2.957-.398.394-.926.612-1.488.612-.56 0-1.09-.218-1.487-.612l-3.434-3.415c1.095-1.813.857-4.204-.713-5.766l-.082-.08c-1.045-1.04-2.463-1.492-3.831-1.356-.077-1.14-.559-2.2-1.379-3.014-.633-.631-1.404-1.045-2.217-1.243.207-.535.316-1.109.316-1.699 0-1.26-.493-2.445-1.39-3.337-.896-.891-2.087-1.382-3.355-1.382-.723 0-1.421.16-2.053.462-.213-.752-.615-1.46-1.209-2.05-1.85-1.841-4.862-1.84-6.712 0l-.557.553-.406-.404c-.653-.65-1.013-1.512-1.013-2.43v-3.502c0-.356-.142-.698-.396-.949l-5.763-5.732 1.62-1.613c.527-.524.527-1.374 0-1.898-.527-.525-1.383-.525-1.91 0l-2.171 2.159c-.41.407-1.076.407-1.485 0l-6.95-6.91c-.527-.524-1.382-.524-1.91 0-.527.525-.527 1.375 0 1.899l6.95 6.91c.732.727 1.692 1.09 2.652 1.09.308 0 .614-.041.914-.116l5.748 5.716v2.946c0 1.634.642 3.172 1.804 4.328l.406.404-.452.45c-.897.891-1.39 2.077-1.39 3.337 0 1.26.493 2.446 1.39 3.337.926.92 2.141 1.38 3.357 1.38.019 0 .038 0 .057-.002v.06c0 1.26.492 2.446 1.389 3.337.896.891 2.089 1.383 3.357 1.383l.06-.002c-.015 1.227.446 2.46 1.386 3.394.925.92 2.141 1.38 3.357 1.38h.059c-.015 1.228.446 2.46 1.387 3.396l.081.08c.897.892 2.089 1.383 3.356 1.383 1.268 0 2.46-.49 3.356-1.382l2.533-2.518 3.334 3.315c.907.902 2.113 1.399 3.396 1.399 1.284 0 2.49-.497 3.398-1.399.957-.952 1.423-2.209 1.402-3.46l.085.002c1.283 0 2.49-.497 3.397-1.398.957-.953 1.424-2.211 1.402-3.462l.084.002c1.231 0 2.46-.465 3.397-1.397.908-.901 1.407-2.1 1.407-3.376 0-.029 0-.056-.002-.084l.083.002c1.23 0 2.46-.467 3.397-1.397 1.018-1.012 1.481-2.37 1.392-3.698l8.212-8.164c.527-.525.527-1.376 0-1.9-.528-.524-1.383-.524-1.91 0zM20.327 48.001c-.386-.384-.599-.895-.599-1.438 0-.543.213-1.054.6-1.438l2.917-2.902c.4-.397.923-.595 1.447-.595s1.047.198 1.447.595c.797.793.797 2.083 0 2.877L23.219 48c-.796.793-2.094.793-2.892 0zm6.249 5.371c-.546 0-1.06-.211-1.446-.595-.387-.385-.599-.896-.599-1.439s.212-1.053.6-1.438l2.917-2.902 1.815-1.804c.386-.385.9-.596 1.447-.596.546 0 1.06.211 1.446.596.386.384.599.895.599 1.438 0 .544-.213 1.055-.6 1.439l-4.732 4.706c-.387.384-.9.595-1.447.595zm3.356 4.18c-.797-.794-.797-2.083 0-2.877l3.221-3.203c.4-.396.923-.595 1.447-.595s1.048.199 1.446.595c.386.384.6.895.6 1.438 0 .544-.213 1.054-.599 1.438l-3.222 3.203c-.797.794-2.095.794-2.893.001zm7.777 4.855c-.386.385-.9.597-1.446.597-.546 0-1.06-.212-1.447-.597l-.08-.08c-.799-.793-.799-2.083 0-2.877l3.22-3.202.003-.003.404-.402c.4-.397.923-.595 1.447-.595s1.048.198 1.447.595l.08.08c.799.793.799 2.084 0 2.877l-3.628 3.607z" mask="url(#d0sfsa46rb)"/>
                        <path fill="#1D2329" d="M91.605 25.257c-.528-.525-1.382-.525-1.91 0l-5.06 5.031c-.07.07-.185.07-.256.003L66.49 13.3c-.037-.035-.056-.08-.057-.13 0-.05.018-.094.053-.13L77.096 2.49c.528-.525.528-1.375 0-1.9-.527-.524-1.382-.524-1.909 0l-10.61 10.551c-.555.55-.854 1.282-.845 2.06.007.628.217 1.218.594 1.706l-4.856 4.735-4.575-2.537c-.598-.331-1.276-.507-1.961-.507h-13l-.989-.984c-.92-.914-2.001-1.61-3.216-2.071L32.13 12.18l-1.663-1.653c.86-1.432.675-3.316-.564-4.548L24.484.59c-.527-.525-1.382-.525-1.91 0-.527.524-.527 1.374 0 1.898l5.419 5.388c.41.407.41 1.07 0 1.478L16.98 20.304c-.526.524-.526 1.374 0 1.898.264.263.61.394.956.394.345 0 .69-.131.955-.394l9.75-9.694 1.783 1.774c.135.134.297.238.475.305l3.869 1.466c.834.316 1.58.791 2.217 1.412-.083.069-.163.14-.24.216l-5.136 5.107c-1.019 1.013-1.58 2.36-1.58 3.793 0 1.433.561 2.78 1.58 3.794 1.054 1.048 2.431 1.578 3.815 1.578 1.209 0 2.423-.405 3.428-1.227l3.887-3.177h4.048l4.626 4.6c.264.262.61.393.955.393s.691-.13.955-.393c.527-.525.527-1.375 0-1.899l-3.342-3.322c.134-.209.212-.455.212-.722 0-.741-.604-1.342-1.35-1.342h-6.588c-.313 0-.616.108-.858.306l-4.26 3.482c-1.078.88-2.632.805-3.618-.175-.509-.506-.79-1.18-.79-1.896 0-.715.281-1.388.79-1.894l5.136-5.107c.192-.19.448-.297.72-.297h13.559c.225 0 .448.058.645.168l5.06 2.805c.752.417 1.706.291 2.324-.309l5.29-5.158 14.561 13.832-2.12 2.107c-.526.524-.526 1.375 0 1.899.265.262.611.393.956.393.346 0 .69-.13.955-.393l2.181-2.168c.507.373 1.112.562 1.719.562.74 0 1.481-.279 2.039-.833l5.061-5.033c.527-.523.527-1.374 0-1.898z" mask="url(#d0sfsa46rb)"/>
                    </g>
                </g>
            </g>
        </g>
    </g>
</svg>
