<svg xmlns="http://www.w3.org/2000/svg" width="92" height="86" viewBox="0 0 92 86">
    <g fill="none" fill-rule="evenodd">
        <g>
            <g>
                <g>
                    <g>
                        <path fill="#1D2329" d="M2.157 64.81V2.17h38.478L12.32 9.29c-.473.12-.817.563-.817 1.053V64.81H2.157zm46.16-55.552H21.343l26.974-6.783v6.783zm12.582 52.538c.596 0 1.078-.486 1.078-1.086V10.343c0-.599-.482-1.085-1.078-1.085H50.474V1.085C50.474.495 49.98 0 49.395 0H1.08C.483 0 0 .486 0 1.085v64.81c0 .599.483 1.084 1.079 1.084h10.425v5.86c0 .598.483 1.084 1.078 1.084H60.9c.596 0 1.078-.486 1.078-1.085V65.87c0-.6-.482-1.085-1.078-1.085-.596 0-1.078.486-1.078 1.085v5.883H13.66V11.428h46.16V60.71c0 .6.482 1.086 1.078 1.086z" transform="translate(-192 -806) translate(150 753) translate(42 53) translate(15 6)"/>
                        <path fill="#D0313F" d="M21.714 32.405h30.054V19.53H21.714v12.875zm32.21-13.96c0-.6-.482-1.085-1.078-1.085h-32.21c-.596 0-1.08.485-1.08 1.085V33.49c0 .599.484 1.085 1.08 1.085h32.21c.596 0 1.079-.486 1.079-1.085V18.445z" transform="translate(-192 -806) translate(150 753) translate(42 53) translate(15 6)"/>
                        <path fill="#1D2329" d="M21.714 63.652h17.4v-23.29h-17.4v23.29zm-1.079-25.46c-.595 0-1.078.485-1.078 1.084v25.461c0 .6.483 1.085 1.078 1.085h19.557c.596 0 1.078-.486 1.078-1.085v-25.46c0-.6-.482-1.086-1.078-1.086H20.635z" transform="translate(-192 -806) translate(150 753) translate(42 53) translate(15 6)"/>
                        <path fill="#D0313F" d="M52.846 41.663h-8.052c-.596 0-1.079.486-1.079 1.085 0 .6.483 1.085 1.079 1.085h8.052c.596 0 1.079-.486 1.079-1.085 0-.6-.483-1.085-1.079-1.085M52.846 46.292h-8.052c-.596 0-1.079.486-1.079 1.085 0 .6.483 1.085 1.079 1.085h8.052c.596 0 1.079-.485 1.079-1.085 0-.599-.483-1.085-1.079-1.085M52.846 50.922h-8.052c-.596 0-1.079.485-1.079 1.085 0 .599.483 1.084 1.079 1.084h8.052c.596 0 1.079-.485 1.079-1.084 0-.6-.483-1.085-1.079-1.085M52.846 55.55h-8.052c-.596 0-1.079.487-1.079 1.086 0 .599.483 1.085 1.079 1.085h8.052c.596 0 1.079-.486 1.079-1.085 0-.6-.483-1.085-1.079-1.085M52.846 60.18h-8.052c-.596 0-1.079.486-1.079 1.085 0 .6.483 1.085 1.079 1.085h8.052c.596 0 1.079-.486 1.079-1.085 0-.6-.483-1.085-1.079-1.085" transform="translate(-192 -806) translate(150 753) translate(42 53) translate(15 6)"/>
                    </g>
                </g>
            </g>
        </g>
    </g>
</svg>
