<svg xmlns="http://www.w3.org/2000/svg" width="15" height="17" viewBox="0 0 15 17">
    <g fill="none" fill-rule="evenodd">
        <g fill="#6D6E71">
            <g>
                <g>
                    <path d="M3.3.83c0-.458.4-.83.8-.83.5 0 .9.372.9.83v.83h4.9V.83c0-.458.4-.83.9-.83.4 0 .8.372.8.83v.83h.8c1.4 0 2.5 1.115 2.5 2.49v9.961c0 1.375-1.1 2.49-2.5 2.49H2.5c-1.4 0-2.5-1.115-2.5-2.49V4.15c0-1.375 1.1-2.49 2.5-2.49h.8V.83zm.8 2.49h8.3c.5 0 .9.372.9.83v.83H1.6v-.83c0-.458.4-.83.9-.83h1.6zM1.6 6.64v7.471c0 .458.4.83.9.83h9.9c.5 0 .9-.372.9-.83V6.64H1.6zm8.2 2.979c.2-.37.2-.889-.2-1.159s-.9-.189-1.2.181l-1.7 2.438-.7-.804c-.3-.359-.8-.42-1.1-.135-.4.284-.5.806-.2 1.166l1.3 1.66c.2.203.4.32.7.314.3-.005.5-.131.7-.34l2.4-3.321z" transform="translate(-172 -1214) translate(150 987) translate(22 227)"/>
                </g>
            </g>
        </g>
    </g>
</svg>
