<svg xmlns="http://www.w3.org/2000/svg" xmlns:xlink="http://www.w3.org/1999/xlink" width="176" height="54" viewBox="0 0 176 54">
    <defs>
        <path id="rwger9vk5a" d="M0.213 0.172L28.22 0.172 28.22 28 0.213 28z"/>
        <path id="ro4b604e6c" d="M0 0.018L38.62 0.018 38.62 33.866 0 33.866z"/>
        <path id="7av30c77me" d="M0.208 0.494L1.748 0.494 1.748 1.736 0.208 1.736z"/>
        <path id="bcli4ov2yg" d="M0.917 0.277L8.997 0.277 8.997 17.1 0.917 17.1z"/>
    </defs>
    <g fill="none" fill-rule="evenodd">
        <g>
            <g>
                <g transform="translate(-1405 -879) translate(1405 879) translate(102 25.723)">
                    <mask id="k6s5je0pgb" fill="#fff">
                        <use xlink:href="#rwger9vk5a"/>
                    </mask>
                    <path fill="#FEFEFE" d="M13.815 24.521c.446 1.605 2.141 2.587 3.791 2.141 1.65-.446 2.586-2.14 2.141-3.746l-5.218-19.4c-.446-1.605-2.096-2.586-3.746-2.14-1.65.446-2.63 2.14-2.186 3.747l5.218 19.398zM.213 14.085C.213 6.416 6.234.172 14.083.172c7.804 0 14.137 6.244 14.137 13.913C28.22 21.801 21.887 28 14.083 28 6.234 28 .213 21.801.213 14.085z" mask="url(#k6s5je0pgb)"/>
                </g>
                <path fill="#FEFEFE" d="M84.643 29.507c0-2.229-2.051-3.79-4.593-3.79-1.294 0-2.587.401-3.479.892l-7.269 4.013h5.664v22.254h9.677l.044-21.05c0-1.293 1.071-2.408 2.409-2.408 1.293 0 2.363 1.115 2.363 2.408v21.05h9.455V29.731c0-2.23-2.052-4.015-4.594-4.015-1.293 0-2.809.536-3.433.937l-6.244 2.854zM144.357 29.507c0-2.229-2.097-3.79-4.639-3.79-1.293 0-2.542.401-3.477.892l-7.27 4.013h5.708v22.254h9.678v-21.05c0-1.293 1.07-2.408 2.408-2.408 1.338 0 2.408 1.115 2.408 2.408l-.045 21.05h9.5V29.731c0-2.23-2.097-4.015-4.638-4.015-1.249 0-2.81.536-3.435.937l-6.198 2.854z" transform="translate(-1405 -879) translate(1405 879)"/>
                <g transform="translate(-1405 -879) translate(1405 879) translate(0 19.723)">
                    <mask id="5ozd3tdbcd" fill="#fff">
                        <use xlink:href="#ro4b604e6c"/>
                    </mask>
                    <path fill="#FEFEFE" d="M26.178 16.607L38.62 9.472C35.32 3.853 28.363.018 20.38.018 9.144.018 0 7.6 0 16.964c0 9.321 9.143 16.902 20.38 16.902 7.18 0 13.513-3.077 17.126-7.76l-.134-1.427c-2.498 3.657-6.734 6.021-11.55 6.021-7.671 0-13.87-6.02-13.87-13.513 0-7.447 6.199-13.513 13.87-13.513 2.318 0 5.217.224 7.135 2.41l-6.78 10.523z" mask="url(#5ozd3tdbcd)"/>
                </g>
                <path fill="#FEFEFE" d="M70.952 52.877l-5.619-22.254c-.847-3.032-3.389-4.95-7.002-4.95-1.605 0-2.765.49-4.236 1.115l-10.48 3.835 12.62.045 2.23 8.384c-1.784-1.695-4.593-2.855-8.072-3.211-6.02-.58-10.97 3.835-10.97 8.562 0 4.728 4.994 9.544 10.97 8.563 5.842-.982 9.01-3.48 9.856-7.091l1.873 7.002h8.83zM49.28 44.314c0-2.765 2.23-4.995 4.95-4.995 2.765 0 4.994 2.23 4.994 4.995 0 2.72-2.229 4.95-4.994 4.95-2.72 0-4.95-2.23-4.95-4.95zM157.424 3.82s-1.784.714-2.943 2.364c-1.16 1.65-2.007 3.567-1.561 3.79.445.223 2.007-1.248 2.942-2.63.937-1.383 1.918-3.078 1.562-3.524m-9.812 2.453c-1.65 2.453-1.248 3.835-.936 4.192 1.16 1.07 5.798-2.943 5.798-2.943 1.383-2.81 3.3-4.37 4.46-4.727 1.159-.357.98 1.114.98 1.114.358-.223.49.58.358.892-.134.312-1.116 2.275-1.338 3.3-.224 1.026-.09 2.676-.09 2.676-.714-.178-.982-2.096-.982-2.096-.133.18-1.783 2.275-3.121 2.453-1.382.18-1.16-2.052-1.16-2.052-1.65 1.34-6.733 4.995-6.421.803.312-4.19 3.12-6.065 4.103-6.199.669-.089 1.249.58 1.249 1.25 0 .668-.491.802-.491.802.045-.446-.624-2.186-2.41.535M161.08 3.063c.134-.67.535-1.516.09-1.516-.268-.045-1.338 1.47-1.694 3.79-.313 2.23-.224 3.568.712 3.39.268-.09.402-1.606.669-2.631.268-1.026 1.071-3.122 2.275-2.632.625.223.045 4.772.267 5.218.224.446.358.045.535-.357.179-.401.803-3.835.313-5.04-.356-1.025-.981-1.604-1.694-1.292-.714.312-1.607 1.828-1.607 1.828s.09-.357.134-.758M167.19 5.293s-.446.356-.4.758c.088.4.801.713 1.07.134.267-.624.267-1.071 0-1.16-.225-.09-.67.268-.67.268M170.847 3.91s-.401 1.383.669 1.07c1.026-.267.09-.802-.044-.936s-.491-.268-.625-.134" transform="translate(-1405 -879) translate(1405 879)"/>
                <g transform="translate(-1405 -879) translate(1405 879) translate(174 2.723)">
                    <mask id="8xev8wkmkf" fill="#fff">
                        <use xlink:href="#7av30c77me"/>
                    </mask>
                    <path fill="#FEFEFE" d="M.683.517s-.76.49-.357.847c.446.357 1.026.446 1.204.313.223-.134.312-.759.09-.892C1.397.606.995.428.683.517" mask="url(#8xev8wkmkf)"/>
                </g>
                <g transform="translate(-1405 -879) translate(1405 879) translate(121 .723)">
                    <mask id="mvfollamth" fill="#fff">
                        <use xlink:href="#bcli4ov2yg"/>
                    </mask>
                    <path fill="#FEFEFE" d="M8.462.288c-.18.089-.356.223-.446.4-.223.492-2.542 4.639-3.344 5.576-.76.892-1.606 2.408-1.65 2.63l-.09.268-.178-.223c0-.044-.625-.892-.803-3.567-.134-2.498.045-3.88.089-3.97l-.044.09c0-.09 0-.402-.135-.535L1.684.912c-.535-.044-.625.625-.625.803-.044.4-.268 3.032-.044 4.816.177 1.784.535 3.479 1.56 3.702l.089.044v.134c-.044.134-.624 3.434-.935 4.236l-.313.803c-.18.402-.357.848-.357.982 0 .267.357.624.535.668.09 0 .446-.044.669-.133.09-.312.759-2.186 1.249-4.415l.58-2.32.179-.891c.044-.313.535-1.071.98-1.784l.134-.134C5.74 6.843 8.73 1.938 8.953.868c0 0 .044-.09.044-.224 0-.088-.044-.222-.134-.312-.177-.09-.311-.044-.401-.044" mask="url(#mvfollamth)"/>
                </g>
                <path fill="#FEFEFE" d="M128.793 9.663l-.09-.044-.044-.045c-.045-.134-.09-.357 0-.491.045-.045.089-.09.223-.09.58.09 1.026.358 1.294.759.535.759.4 1.873.222 2.497-.312 1.294-1.382 2.364-1.74 2.319-.4-.044-.534-.58-.534-1.872v-.18c0-1.024.714-2.496.758-2.63.045-.134-.09-.223-.09-.223m-.178-1.561c-.624.045-.98.803-.936.936 0 .045.134.134.312.179l.223.089-.223.134c-.401.267-1.115 2.274-1.025 4.014.044.892.49 1.649 1.159 2.006.535.268 1.159.179 1.695-.223 1.516-1.025 2.319-2.988 1.917-4.726-.445-1.874-2.408-2.498-3.122-2.41M138.872 6.809c-.224.044-.446.223-.625.58-.044.044-2.631 5.753-3.522 5.619-.937-.134-.982-1.383-.179-3.345 0 0 .936-1.561 1.07-1.65.089-.09.134-.401.045-.535-.089-.134-.089-.268-.312-.401-.223-.09-.803.356-1.561 1.96-.58 1.206-.937 2.633-.937 3.569 0 .357.044.625.178.803.224.357.58.803 1.115.847.447.045.982-.09 1.517-.67 1.338-1.515 1.694-2.362 1.694-2.406l.402-.804-.045.937c.045 1.249.223 3.3.669 3.478l.223.09c0-.045.044-.134.044-.134v-.313c-.044-.178-.044-.49-.044-.891 0-.713.044-1.65.402-3.032l.401-1.562c.134-.624.268-1.025.268-1.337 0-.18-.045-.313-.134-.447-.179-.178-.401-.356-.669-.356" transform="translate(-1405 -879) translate(1405 879)"/>
            </g>
        </g>
    </g>
</svg>
