<svg xmlns="http://www.w3.org/2000/svg" width="12" height="17" viewBox="0 0 12 17">
    <g fill="none" fill-rule="evenodd">
        <g fill="#43484D">
            <path d="M185.705 803.7c0-.938.826-1.7 1.756-1.7h5.165c.93 0 1.653.762 1.653 1.7v.85c0 .656-.31 1.226-.93 1.51l2.583 4.901c.103.29.103.638-.103.9l-5.166 6.799c-.103.214-.413.34-.62.34-.31 0-.516-.126-.723-.34l-5.165-6.8c-.207-.26-.207-.609 0-.899l2.48-4.902c-.517-.283-.93-.853-.93-1.51v-.85zm5.165 2.55h.723l2.583 5.015-4.132 5.469-4.133-5.469 2.583-5.015h.723v5.1c0 .47.31.85.827.85.413 0 .826-.38.826-.85v-5.1zm1.756-1.7h-5.165v-.85h5.165v.85z" transform="translate(-184 -802)"/>
        </g>
    </g>
</svg>
