<svg xmlns="http://www.w3.org/2000/svg" width="72" height="67" viewBox="0 0 72 67">
    <g fill="none" fill-rule="evenodd">
        <g stroke-width="2">
            <g>
                <g>
                    <path stroke="#222829" d="M0 52.246L57.913 52.246" transform="translate(-210 -1562) translate(210 1562) translate(7.043 7.012)"/>
                    <path stroke="#1D2329" d="M24.432 21.62v25.222c0 2.984-2.431 5.404-5.43 5.404H9.955c-2.998 0-5.43-2.42-5.43-5.404V29.726l-3.62-6.305v-1.802h23.528z" transform="translate(-210 -1562) translate(210 1562) translate(7.043 7.012)"/>
                    <path stroke="#222829" d="M4.524 35.131L21.717 35.131M4.524 31.528L9.049 31.528M4.524 42.338L9.049 42.338M4.524 38.734L9.049 38.734M4.524 45.941L9.049 45.941" transform="translate(-210 -1562) translate(210 1562) translate(7.043 7.012)"/>
                    <path stroke="#1D2329" d="M33.481 7.206v18.917L46.149 44.14c0 4.478-3.645 8.107-8.144 8.107H23.527c-4.498 0-8.144-3.629-8.144-8.107l12.669-18.016V7.206" transform="translate(-210 -1562) translate(210 1562) translate(7.043 7.012)"/>
                    <path stroke="#222829" d="M25.337 7.206L36.196 7.206M16.288 44.139L21.717 44.139M27.147 44.139L45.245 44.139M33.481 12.611L30.766 12.611M33.481 16.214L30.766 16.214M33.481 19.818L30.766 19.818M33.481 23.421L30.766 23.421" transform="translate(-210 -1562) translate(210 1562) translate(7.043 7.012)"/>
                    <path stroke="#1D2329" stroke-linejoin="round" d="M38.91 23.42l5.43-3.602h10.858c1 0 1.81-.808 1.81-1.802V10.81c0-.995-.81-1.802-1.81-1.802H40.72c-.999 0-1.81.807-1.81 1.802v12.61z" transform="translate(-210 -1562) translate(210 1562) translate(7.043 7.012)"/>
                    <path stroke="#D0313F" stroke-linejoin="round" d="M48.864 14.413L47.054 14.413M52.484 14.413L50.674 14.413M45.245 14.413L43.435 14.413" transform="translate(-210 -1562) translate(210 1562) translate(7.043 7.012)"/>
                    <path stroke="#D0313F" d="M20.813 14.413c0 1.99-1.621 3.603-3.62 3.603s-3.62-1.613-3.62-3.603c0-1.99 1.621-3.603 3.62-3.603s3.62 1.613 3.62 3.603zM9.954 9.909c0 1.492-1.216 2.702-2.715 2.702-1.498 0-2.715-1.21-2.715-2.702S5.741 7.206 7.24 7.206c1.499 0 2.715 1.211 2.715 2.703zM17.193 2.702c0 1.492-1.216 2.703-2.715 2.703-1.498 0-2.714-1.21-2.714-2.703C11.764 1.211 12.98 0 14.478 0c1.499 0 2.715 1.21 2.715 2.702z" transform="translate(-210 -1562) translate(210 1562) translate(7.043 7.012)"/>
                    <path stroke="#222829" d="M10.859 16.214L9.049 16.214M7.239 3.603L5.429 3.603M21.717 7.206L19.908 7.206" transform="translate(-210 -1562) translate(210 1562) translate(7.043 7.012)"/>
                </g>
            </g>
        </g>
    </g>
</svg>
