<svg xmlns="http://www.w3.org/2000/svg" xmlns:xlink="http://www.w3.org/1999/xlink" width="169" height="89" viewBox="0 0 169 89">
    <defs>
        <path id="gi2k5tiyda" d="M0.149 0.233L22.726 0.233 22.726 31 0.149 31z"/>
        <path id="18t12611wc" d="M0 89L169 89 169 0 0 0z"/>
    </defs>
    <g fill="none" fill-rule="evenodd">
        <g>
            <g transform="translate(-1179 -861) translate(1179 861)">
                <path fill="#F3F3F4" d="M65.104 81.561l-.027 6.643.486.084c1.528.284 3.07.482 4.62.592 1.358.126 2.722.153 4.084.08 1.3-.093 2.587-.336 3.832-.721 1.462-.413 2.818-1.134 3.975-2.115 1.044-.889 1.84-2.029 2.316-3.312.83-2.149.812-4.532-.046-6.669-.453-1.108-1.164-2.092-2.077-2.87-.882-.793-1.918-1.395-3.045-1.77l-5.02-1.858c-.6-.254-1.088-.717-1.371-1.303-.221-.488-.2-1.05.056-1.52.09-.165.202-.317.335-.45.154-.156.326-.292.513-.406.074-.046.15-.088.227-.128.562-.277 1.167-.453 1.79-.52 1.063-.153 2.143-.142 3.202.034 1.252.135 2.492.356 3.713.663l.26.057v-6.128l-.48-.103c-1.245-.297-2.505-.521-3.776-.67-1.648-.22-3.316-.228-4.965-.022-2.09.19-4.076.988-5.716 2.294-1.112.87-1.957 2.034-2.442 3.358-.729 2.018-.731 4.226-.005 6.245.375 1.003.975 1.907 1.755 2.643.677.65 1.441 1.204 2.272 1.643 1.094.586 2.253 1.04 3.454 1.353.397.118.791.244 1.184.375l.594.218.17.07c.586.209 1.123.538 1.573.968.312.292.554.652.704 1.052.093.366.094.749.004 1.116-.188.59-.6 1.084-1.15 1.375-.597.31-1.245.512-1.914.597-.981.155-1.976.206-2.968.15-1.3-.098-2.593-.27-3.873-.517-.669-.136-1.335-.292-1.995-.466l-.249-.062"/>
                <g transform="translate(15 58)">
                    <mask id="oibe4srm4b" fill="#fff">
                        <use xlink:href="#gi2k5tiyda"/>
                    </mask>
                    <path fill="#F3F3F4" d="M22.726 29.914v-7.911l-.154.068c-1.777.863-3.709 1.356-5.68 1.447-2.049.161-4.084-.441-5.717-1.692-1.168-.904-2.035-2.141-2.49-3.549-.501-1.534-.56-3.18-.167-4.745.364-1.602 1.258-3.032 2.535-4.059 1.132-.951 2.516-1.55 3.981-1.724 2.592-.289 5.211.205 7.522 1.417l.17.088V1.297l-.36-.096C20.053.455 17.623.136 15.196.259c-2.211.056-4.389.556-6.405 1.47-2.034.936-3.828 2.327-5.243 4.068-4.423 5.618-4.54 13.517-.287 19.266 2.093 2.688 5.032 4.585 8.337 5.382 3.483.85 7.133.722 10.55-.371l.578-.16" mask="url(#oibe4srm4b)"/>
                </g>
                <mask id="5wgj2i836d" fill="#fff">
                    <use xlink:href="#18t12611wc"/>
                </mask>
                <path fill="#F3F3F4" d="M48 88L55 88 55 59 48 59zM165 84.461L165 84 162 84 162 84.461 163.248 84.461 163.248 88 163.752 88 163.752 84.461zM165 88L165.507 88 165.507 84.806 165.575 84.806 166.718 88 167.229 88 168.465 84.651 168.465 88 169 88 169 84 168.174 84 167.014 87.294 165.839 84 165 84zM0 35.614c.066.92.463 1.78 1.112 2.41.65.627 1.502.976 2.388.976.886 0 1.739-.349 2.388-.977.65-.628 1.046-1.488 1.112-2.41v-8.107c-.036-.942-.42-1.834-1.072-2.487C5.275 24.365 4.405 24 3.5 24s-1.775.365-2.428 1.019C.42 25.672.036 26.564 0 27.506v8.108M20 35.623c.066.919.463 1.776 1.112 2.403.65.626 1.502.974 2.388.974.885 0 1.738-.348 2.387-.974.65-.627 1.047-1.484 1.113-2.403V17.497c-.036-.94-.42-1.83-1.072-2.481C25.275 14.364 24.405 14 23.5 14s-1.775.364-2.428 1.016c-.652.652-1.036 1.541-1.072 2.48v18.127M41 42.63c.066.916.463 1.773 1.112 2.398.65.625 1.502.972 2.388.972.885 0 1.738-.347 2.388-.972.649-.625 1.046-1.482 1.112-2.398V3.49c-.036-.939-.42-1.826-1.072-2.477C46.275.364 45.405 0 44.5 0s-1.775.364-2.428 1.014c-.652.651-1.037 1.538-1.072 2.477V42.63M61 35.623c.066.919.463 1.776 1.112 2.403.65.626 1.502.974 2.388.974.886 0 1.738-.348 2.388-.974.649-.627 1.046-1.484 1.112-2.403V17.497c-.036-.94-.42-1.83-1.072-2.481C66.275 14.364 65.405 14 64.5 14s-1.775.364-2.428 1.016c-.652.652-1.036 1.541-1.072 2.48v18.127M81 35.614c.066.92.463 1.78 1.113 2.41.649.627 1.501.976 2.387.976.886 0 1.739-.349 2.388-.977.65-.628 1.046-1.488 1.112-2.41v-8.107c-.036-.942-.42-1.834-1.072-2.487C86.275 24.365 85.405 24 84.5 24s-1.775.365-2.428 1.019c-.652.653-1.036 1.545-1.072 2.487v8.108M101 35.623c.066.919.463 1.776 1.112 2.403.65.626 1.502.974 2.388.974.885 0 1.738-.348 2.387-.974.65-.627 1.047-1.484 1.113-2.403V17.497c-.036-.94-.42-1.83-1.072-2.481-.653-.652-1.523-1.016-2.428-1.016s-1.775.364-2.428 1.016c-.652.652-1.036 1.541-1.072 2.48v18.127M121 42.63c.066.916.463 1.773 1.112 2.398.65.625 1.502.972 2.388.972.885 0 1.738-.347 2.388-.972.649-.625 1.046-1.482 1.112-2.398V3.49c-.036-.939-.42-1.826-1.072-2.477C126.275.364 125.405 0 124.5 0s-1.775.364-2.428 1.014c-.652.651-1.037 1.538-1.072 2.477V42.63M142 35.623c.066.919.463 1.776 1.112 2.403.65.626 1.502.974 2.388.974.886 0 1.738-.348 2.388-.974.649-.627 1.046-1.484 1.112-2.403V17.497c-.036-.94-.42-1.83-1.072-2.481-.653-.652-1.523-1.016-2.428-1.016s-1.775.364-2.428 1.016c-.652.652-1.036 1.541-1.072 2.48v18.127M162 35.614c.066.92.463 1.78 1.112 2.41.65.627 1.502.976 2.388.976.885 0 1.738-.349 2.388-.977.649-.628 1.046-1.488 1.112-2.41v-8.107c-.036-.942-.42-1.834-1.072-2.487-.653-.654-1.523-1.019-2.428-1.019s-1.775.365-2.428 1.019c-.652.653-1.037 1.545-1.072 2.487v8.108M115 87.941v-7.714l-.15.066c-1.731.842-3.614 1.323-5.535 1.412-1.996.157-3.98-.43-5.571-1.65-1.137-.882-1.983-2.088-2.426-3.46-.489-1.497-.546-3.101-.164-4.628.356-1.561 1.226-2.956 2.47-3.957 1.104-.928 2.453-1.512 3.88-1.682 2.527-.28 5.078.2 7.331 1.382l.165.086v-7.758l-.35-.094c-2.255-.727-4.623-1.039-6.988-.919-2.155.055-4.277.543-6.24 1.433-1.984.913-3.731 2.27-5.11 3.968-4.31 5.478-4.424 13.18-.28 18.785 2.04 2.621 4.903 4.47 8.124 5.248 3.395.829 6.951.703 10.28-.362l.564-.156M133.724 68.073c1.597-1.26 3.635-1.841 5.665-1.616 2.03.224 3.888 1.236 5.163 2.814 1.275 1.577 1.863 3.59 1.636 5.595-.228 2.005-1.253 3.84-2.85 5.1-1.596 1.259-3.634 1.84-5.664 1.615-2.03-.224-3.888-1.237-5.163-2.814-1.275-1.577-1.863-3.59-1.635-5.595.227-2.006 1.252-3.84 2.848-5.1M123 74.01c.072 4.574 2.222 8.875 5.856 11.711 3.634 2.836 8.367 3.909 12.89 2.92 6.14-1.142 10.925-5.916 12.02-11.993 1.096-6.076-1.727-12.188-7.092-15.354-4.736-2.895-10.68-3.06-15.574-.431-4.894 2.628-7.986 7.646-8.1 13.147" mask="url(#5wgj2i836d)"/>
            </g>
        </g>
    </g>
</svg>
