<svg xmlns="http://www.w3.org/2000/svg" xmlns:xlink="http://www.w3.org/1999/xlink" width="92" height="86" viewBox="0 0 92 86">
    <defs>
        <path id="9eqtwpcila" d="M0.009 0L62 0 62 78.692 0.009 78.692z"/>
    </defs>
    <g fill="none" fill-rule="evenodd">
        <g>
            <g>
                <g>
                    <path fill="#1D2329" d="M51.15 69.47c-.856 0-1.55.69-1.55 1.538 0 .848.694 1.536 1.55 1.536.856 0 1.55-.688 1.55-1.536 0-.849-.694-1.537-1.55-1.537z" transform="translate(-582 -806) translate(582 806) translate(15 4)"/>
                    <path fill="#D0313F" d="M23.25 34.735c2.02 0 3.744-1.284 4.384-3.074H31v20.903c0 2.547 2.081 4.61 4.65 4.61 2.564 0 4.65-2.067 4.65-4.61V31.661h3.366c.64 1.79 2.364 3.074 4.384 3.074 2.564 0 4.65-2.068 4.65-4.61v-15.37c0-2.548-2.081-4.611-4.65-4.611-2.02 0-3.744 1.285-4.384 3.074h-16.03c-.623-1.75-2.32-3.074-4.386-3.074-2.564 0-4.65 2.068-4.65 4.61v15.37c0 2.543 2.086 4.611 4.65 4.611zm4.65-6.148h15.5V16.292H27.9v12.295zm9.3 23.977c0 .848-.695 1.537-1.55 1.537-.856 0-1.55-.689-1.55-1.537V31.661h3.1v20.903zm10.85-39.346c.856 0 1.55.688 1.55 1.537v15.37c0 .847-.695 1.536-1.55 1.536-.855 0-1.55-.689-1.55-1.537v-15.37c0-.847.695-1.536 1.55-1.536zM21.7 14.755c0-.848.695-1.537 1.55-1.537.856 0 1.55.688 1.55 1.537v15.37c0 .847-.695 1.536-1.55 1.536-.855 0-1.55-.689-1.55-1.537v-15.37z" transform="translate(-582 -806) translate(582 806) translate(15 4)"/>
                    <g transform="translate(-582 -806) translate(582 806) translate(15 4)">
                        <mask id="17uur5waqb" fill="#fff">
                            <use xlink:href="#9eqtwpcila"/>
                        </mask>
                        <path fill="#1D2329" d="M32.55 22.44h6.2c.856 0 1.55-.688 1.55-1.537 0-.85-.694-1.537-1.55-1.537h-6.2c-.856 0-1.55.688-1.55 1.537s.694 1.537 1.55 1.537z" mask="url(#17uur5waqb)"/>
                        <path fill="#1D2329" d="M0 71.008c0 4.237 3.477 7.684 7.75 7.684h52.7c.683 0 1.285-.443 1.483-1.091.198-.648-.055-1.348-.623-1.724-1.67-1.105-2.627-2.88-2.627-4.87 0-1.99.957-3.764 2.627-4.87h.002c.408-.272.682-.739.687-1.26L62 64.86V1.537C62 .688 61.306 0 60.45 0H7.75C3.477 0 0 3.447 0 7.685v63.323zm56.874 4.61H7.75c-2.564 0-4.65-2.068-4.65-4.61 0-2.547 2.082-4.613 4.65-4.613h49.124c-.833 1.37-1.29 2.96-1.29 4.613 0 1.653.456 3.24 1.29 4.61zM12.4 63.323h46.5V3.073H12.4v60.25zM7.75 3.073H9.3v60.25H7.75c-1.7 0-3.316.54-4.65 1.537V7.685c0-2.543 2.086-4.611 4.65-4.611z" mask="url(#17uur5waqb)"/>
                    </g>
                    <path fill="#1D2329" d="M44.731 69.47H10.85c-.856 0-1.55.689-1.55 1.538 0 .848.694 1.536 1.55 1.536h33.881c.857 0 1.55-.688 1.55-1.536 0-.85-.693-1.537-1.55-1.537z" transform="translate(-582 -806) translate(582 806) translate(15 4)"/>
                </g>
            </g>
        </g>
    </g>
</svg>
