<svg xmlns="http://www.w3.org/2000/svg" width="92" height="86" viewBox="0 0 92 86">
    <g fill="none" fill-rule="evenodd">
        <g stroke-width="2">
            <g>
                <g>
                    <g>
                        <path stroke="#222829" d="M17.774 42.161L11.968 42.161" transform="translate(-583 -1890) translate(541 1837) translate(42 53) translate(10 6)"/>
                        <g>
                            <path stroke="#222829" d="M6.968 37.161c0 1.923-1.561 3.484-3.484 3.484S0 39.085 0 37.161c0-1.923 1.56-3.484 3.484-3.484 1.923 0 3.484 1.561 3.484 3.484zM59.226 37.161L65.032 37.161M65.032 37.161c0 1.923 1.561 3.484 3.484 3.484S72 39.085 72 37.161c0-1.923-1.56-3.484-3.484-3.484-1.923 0-3.484 1.561-3.484 3.484zM54.58 45.29h3.485c2.554 0 4.645 2.09 4.645 4.645v16.259M66.194 69.677c0 1.924-1.561 3.484-3.484 3.484s-3.484-1.56-3.484-3.484c0-1.923 1.56-3.483 3.484-3.483 1.923 0 3.484 1.56 3.484 3.483zM17.42 45.29h-3.485c-2.554 0-4.645 2.09-4.645 4.645v16.259M5.806 69.677c0 1.924 1.561 3.484 3.484 3.484s3.484-1.56 3.484-3.484c0-1.923-1.56-3.483-3.484-3.483-1.923 0-3.484 1.56-3.484 3.483zM54.58 29.032h3.485c2.554 0 4.645-2.09 4.645-4.645V8.13M66.194 4.645c0-1.923-1.561-3.484-3.484-3.484s-3.484 1.561-3.484 3.484 1.56 3.484 3.484 3.484c1.923 0 3.484-1.56 3.484-3.484zM17.42 29.032h-4.646c-2.555 0-4.645-2.09-4.645-4.645V8.13M4.645 4.645c0-1.923 1.56-3.484 3.484-3.484 1.923 0 3.484 1.561 3.484 3.484S10.053 8.13 8.129 8.13c-1.923 0-3.484-1.56-3.484-3.484zM33.677 60.387c0 1.923-1.56 3.484-3.483 3.484-1.924 0-3.484-1.56-3.484-3.484 0-1.923 1.56-3.484 3.484-3.484 1.923 0 3.483 1.561 3.483 3.484zM30.194 63.871L30.194 74.323M18.581 60.387L18.581 74.323M41.806 65.032L41.806 74.323M53.419 55.742L53.419 69.677M22.065 18.58c0-1.922-1.561-3.483-3.484-3.483s-3.484 1.56-3.484 3.484c0 1.923 1.56 3.484 3.484 3.484 1.923 0 3.484-1.561 3.484-3.484zM30.194 13.935L30.194 0M18.581 15.097L18.581 4.645M41.806 18.581L41.806 9.29M56.903 18.58c0-1.922-1.56-3.483-3.484-3.483-1.923 0-3.484 1.56-3.484 3.484 0 1.923 1.561 3.484 3.484 3.484s3.484-1.561 3.484-3.484zM53.419 15.097L53.419 4.645M54.581 37.161L56.903 37.161M17.419 37.161L15.097 37.161M51.097 37.161c0 8.338-6.759 15.097-15.097 15.097S20.903 45.5 20.903 37.161 27.662 22.065 36 22.065s15.097 6.758 15.097 15.096z" transform="translate(-583 -1890) translate(541 1837) translate(42 53) translate(10 6)"/>
                            <path stroke="#D0313F" d="M26.71 37.161L29.032 37.161M42.968 37.161L45.29 37.161" transform="translate(-583 -1890) translate(541 1837) translate(42 53) translate(10 6)"/>
                            <path stroke="#222829" d="M32.516 41.806L38.323 41.806 38.323 38.323 33.677 36 33.677 32.516 39.484 32.516" transform="translate(-583 -1890) translate(541 1837) translate(42 53) translate(10 6)"/>
                            <path stroke="#D0313F" d="M36 41.806L36 45.29M36 29.032L36 32.516M53.419 72L53.419 74.323M53.419 0L53.419 2.323M41.806 0L41.806 2.323M41.806 4.645L41.806 6.968M18.581 0L18.581 2.323M18.581 51.097L18.581 53.419M18.581 55.742L18.581 58.065M41.806 62.71L41.806 60.387M41.806 58.065L41.806 55.742M53.419 53.419L53.419 51.097M30.194 18.581L30.194 16.258" transform="translate(-583 -1890) translate(541 1837) translate(42 53) translate(10 6)"/>
                        </g>
                    </g>
                </g>
            </g>
        </g>
    </g>
</svg>
