<svg xmlns="http://www.w3.org/2000/svg" xmlns:xlink="http://www.w3.org/1999/xlink" width="176" height="34" viewBox="0 0 176 34">
    <defs>
        <path id="q4jgbta3wa" d="M0 0.686L27.874 0.686 27.874 29.534 0 29.534z"/>
        <path id="inn4akm7pc" d="M0.495 0.701L33.748 0.701 33.748 33 0.495 33z"/>
    </defs>
    <g fill="none" fill-rule="evenodd">
        <g>
            <g>
                <path fill="#FEFEFE" d="M111.247 11.872c-.677 1.994-1.42 2.749-2.346 3.355-1.008.66-1.868.85-3.204.913-1.159.055-4.932.054-4.932.054l3.051-9.572 4.508-.001c1.162 0 2.078.124 2.678.615.618.506 1.227 1.745.245 4.636m6.012-8.561c-1.514-1.391-4.332-1.768-6.79-1.768H97.45l-8.85 27.868h7.95l2.556-8.031s5.428.016 7.804-.03c4.91-.096 9.475-1.896 11.7-9.37 1.266-4.251.334-7.12-1.352-8.67" transform="translate(-903 -889) translate(903 889)"/>
                <g transform="translate(-903 -889) translate(903 889) translate(0 .314)">
                    <mask id="kbae077zeb" fill="#fff">
                        <use xlink:href="#q4jgbta3wa"/>
                    </mask>
                    <path fill="#FEFEFE" d="M22.822 22.726S9.218 25.702 8.675 21.389c-.318-2.52 2.628-10.753 3.652-12.215 1.145-1.636 2.808-2.3 4.5-2.536 3.518-.491 7.689.357 9.163.736l1.884-5.887S21.656.43 14.838.744c-1.664.077-3.821.494-5.375 1.149-2.072.872-3.781 2.467-5.236 5.89-1.391 3.273-2.926 8.449-3.763 11.6-.133.502-1.148 4.372.327 6.667 1.676 2.606 4.723 3.15 5.902 3.279 5.472.597 14.199-.301 14.199-.301l1.93-6.302z" mask="url(#kbae077zeb)"/>
                </g>
                <path fill="#FEFEFE" d="M46.53 10.41s-2.24 7.436-2.735 8.942c-.539 1.64-1.148 3.615-2.612 4.64-1.057.738-2.78.756-2.78.756s-1.672.067-2.368-.018c-.284-.034-1.864-.055-2.65-1.238-.913-1.375.274-4.263.274-4.263s2.76-8.469 3.306-9.78c.545-1.312.706-1.89 1.53-2.514.888-.672 2.43-.7 3.042-.726.645-.027 1.27-.038 1.828-.013.188.007 2.945-.096 3.546 1.104.433.868-.382 3.11-.382 3.11m7.866-6.37c-2.098-2.726-5.453-2.89-11.229-3.006C39.37.958 35.072 1.031 32.73 2.61c-1.202.81-2.29 1.745-3.442 4.927-.524 1.451-2.564 7.502-3.43 10.51-.819 2.836-1.2 5.236-.45 7.413.587 1.7 1.75 2.841 3.826 3.77 2.076.93 9.726.71 12.567.546 2.841-.164 4.552-.985 5.82-1.966 1.69-1.309 2.535-3.06 3.36-5.247.676-1.79 1.74-5.117 3.361-10.545.977-3.273 1.685-5.86.054-7.978M132.454 18.3l-6.707.032 7.291-11.82-.584 11.788zm1.777-16.747c-3.107 0-4.018.57-5.4 1.438-1.499.94-2.966 3.63-3.853 4.909-.82 1.185-13.69 21.437-13.69 21.437h7.835l3.611-5.891h9.475l-.327 5.975h7.827l1.133-27.868h-6.61z" transform="translate(-903 -889) translate(903 889)"/>
                <g transform="translate(-903 -889) translate(903 889) translate(142 .314)">
                    <mask id="zu6ka1iavd" fill="#fff">
                        <use xlink:href="#inn4akm7pc"/>
                    </mask>
                    <path fill="#FEFEFE" d="M22.266 9.277c-.218.927-2.066 7.129-2.863 9.519-.533 1.595-1.018 3.335-2.182 4.39-1.023.928-2.195 1.09-3.546 1.23-1.056.11-2.711-.022-2.711-.022s-1.503-.117-2.157-1.303c-.481-.873-.286-2.032-.041-2.932.17-.625 2.93-9.716 3.486-11.024.496-1.167.714-1.821 1.612-2.513.929-.717 2.257-.707 2.756-.754.88-.082 2.72-.02 2.72-.02s2.108.02 2.845.784c.683.708.279 1.804.08 2.645zm4.2 15.109l-1.254.024c.977-.718 2.864-6.678 4.254-11.478 1.137-3.921 2.25-7.227.273-9.464C27.629 1.083 23.985.837 18.536.72c-4.288-.09-7.934.107-10.22 1.589-1.514.982-2.477 2.04-3.668 5.223-.541 1.444-2.262 6.688-3.081 9.709-.901 3.313-1.47 5.265-.737 7.772.573 1.964 1.963 3.192 3.845 3.887 1.279.473 3.272.572 5.775.615.009-.014.989-1.474 3.256-2.845 1.334-.808 3.065-1.427 4.25-1.71 1.255-.301 3.008-.512 4.423-.543 1.089-.024 1.8.024 1.8.024-1.661.147-3.642.49-5.575 1.169-2.165.759-4.11 2.17-5.331 3.903C12.12 31.15 11.883 33 11.883 33s.203-.385.729-.897c.955-.927 2.29-1.745 4.39-2.181 1.348-.28 3.342-.413 5.592-.406 1.2.003 9.615 0 9.615 0l1.539-5.131h-7.282z" mask="url(#zu6ka1iavd)"/>
                </g>
                <path fill="#FEFEFE" d="M61.208 1.442l-8.841 27.896h7.379l6.93-21.603 2.926 17.078h1.507l12.9-17.493-7 22.018h7.612l8.843-27.786s-7.583-.006-7.861 0c-.293.006-3.601-.15-5.874 2.739-1.058 1.344-5.791 7.946-5.791 7.946s-.827-4.678-1.268-6.955c-.49-2.536-2.25-3.56-4.78-3.758-1.231-.097-6.682-.082-6.682-.082" transform="translate(-903 -889) translate(903 889)"/>
            </g>
        </g>
    </g>
</svg>
