<svg xmlns="http://www.w3.org/2000/svg" width="25" height="19" viewBox="0 0 25 19">
    <g fill="none" fill-rule="evenodd">
        <g fill="#FFF" fill-rule="nonzero">
            <g>
                <path d="M22.089 19H2.91c-.436 0-.808-.305-.88-.72L.011 6.743c-.055-.322.079-.646.347-.84.268-.193.625-.228.928-.08L7.082 8.59 11.718.413c.312-.55 1.251-.55 1.564 0l4.636 8.178 5.794-2.769c.302-.147.66-.112.929.082.268.193.403.519.346.839L22.97 18.28c-.073.415-.446.72-.88.72zM3.666 17.27h17.67l1.6-9.148-4.993 2.386c-.43.208-.949.047-1.177-.358L12.5 2.626 8.235 10.15c-.228.405-.744.566-1.176.358L2.066 8.122l1.6 9.148z" transform="translate(-276 -2241) translate(276 2241)"/>
            </g>
        </g>
    </g>
</svg>
