<svg xmlns="http://www.w3.org/2000/svg" xmlns:xlink="http://www.w3.org/1999/xlink" width="198" height="30" viewBox="0 0 198 30">
    <defs>
        <path id="g2kxb9sufa" d="M0 0.014L43.121 0.014 43.121 27.999 0 27.999z"/>
    </defs>
    <g fill="none" fill-rule="evenodd">
        <g>
            <g>
                <path fill="#FFF" d="M179.934 7.94h5.81v10.444c0 .636.184 1.256.55 1.866.368.61 1.25.895 2.644.846 1.105-.032 1.869-.337 2.295-.913.427-.581.639-1.18.639-1.799V7.94h5.75v10.863c0 .927-.107 1.726-.331 2.398-.222.672-.7 1.34-1.422 2.003-.73.665-1.715 1.192-2.965 1.579-1.25.383-2.767.537-4.546.462-1.84-.064-3.476-.424-4.908-1.08-1.433-.657-2.38-1.483-2.831-2.479-.456-.995-.685-1.918-.685-2.766V7.939zm-2.624 4.933l-5.667-.023c-.113-.277-.242-.502-.376-.672-.135-.17-.353-.325-.655-.464-.297-.138-.594-.234-.887-.277-.367-.03-.744 0-1.131.093-.387.09-.698.256-.931.486-.234.232-.318.479-.258.742.034.278.232.53.594.764.357.232 1.027.43 2.003.6.977.171 1.979.369 3.004.592 1.027.223 1.945.534 2.747.938.804.403 1.438.934 1.905 1.598.465.665.698 1.422.698 2.273-.02.634-.173 1.285-.451 1.957-.283.672-.714 1.273-1.294 1.808-.58.529-1.492.983-2.732 1.35-1.24.371-2.642.557-4.21.557-1.918.015-3.445-.22-4.575-.707-1.136-.486-1.988-1.055-2.558-1.71-.571-.656-.887-1.25-.942-1.772l-.293-1.483h5.722c.139.325.298.611.48.866.184.258.51.494.972.719.467.226 1.036.328 1.716.311.639 0 1.145-.113 1.512-.346.367-.23.59-.538.669-.913.075-.38-.02-.716-.292-1.01-.233-.231-.63-.43-1.19-.591-.565-.163-1.458-.352-2.687-.579-1.23-.224-2.266-.47-3.11-.742-.842-.27-1.536-.636-2.076-1.1-.546-.463-.952-1.056-1.22-1.77-.272-.72-.262-1.552.03-2.49.193-.683.54-1.306 1.046-1.88.5-.568 1.19-1.038 2.062-1.41.868-.373 1.904-.617 3.109-.744 1.06-.09 2.122-.075 3.178.046 1.056.124 1.983.356 2.79.698.804.34 1.469.813 1.989 1.421.52.614.863 1.211 1.017 1.796l.292 1.069zM159.952 7.94v4.655h-5.231v12.396h-6.217V12.595h-5.256V7.94h16.704zm-28.45 6.436l-1.422 4.033h2.875l-1.453-4.033zm-3.4-6.416h6.683l7.114 17.073h-6.737l-.928-2.526h-5.35l-.867 2.526h-6.683l6.768-17.073zm-19.793 5.933h5.403V7.939h5.84v17.095h-5.84v-6.83h-5.403v6.83h-5.781V7.939h5.78v5.954zM93.62 25.008h6.277V7.94H93.62v17.07zM81.325 14.377l-1.422 4.033h2.875l-1.453-4.033zM77.924 7.96h6.684l7.113 17.073h-6.736l-.928-2.526h-5.35l-.867 2.526h-6.683L77.924 7.96zM57.6 12.128v8.829h2.762c.654 0 1.274-.213 1.859-.637.58-.427.996-1.064 1.25-1.913.248-.85.307-1.76.174-2.733-.14-.802-.418-1.502-.844-2.099-.426-.591-.917-.985-1.467-1.17-.55-.186-1.13-.277-1.73-.277H57.6zm-5.721 12.905V8.03H61c1.067 0 2.074.11 3.02.336.952.226 1.819.574 2.618 1.056.793.478 1.438 1.105 1.928 1.884.496.78.858 1.634 1.09 2.564.234.925.328 1.96.294 3.103-.08 1.54-.382 2.841-.903 3.89-.526 1.052-1.2 1.899-2.033 2.538-.832.64-1.76 1.072-2.776 1.297-1.016.226-2.087.335-3.207.335h-9.153z" transform="translate(-1154 -798) translate(1154 798)"/>
                <g transform="translate(-1154 -798) translate(1154 798) translate(0 .986)">
                    <mask id="j47mkevn4b" fill="#fff">
                        <use xlink:href="#g2kxb9sufa"/>
                    </mask>
                    <path fill="#FFF" d="M15.634 15.95l2.665-.202-6.488-7.172c2.049-.957 25.68-.232 25.533 3.141-.147 3.371-22.814 5.187-22.814 5.187L5.522 7.888l-1.311-.02 9.518 9.778-1.371 3.49 7.919-1.638c20.754-4.096 18.569-8.055 18.569-8.055-1.253-5.01-25.1-4.949-31.808-4.187l8.596 8.693zM0 28h43.12V.012H0V28z" mask="url(#j47mkevn4b)"/>
                </g>
            </g>
        </g>
    </g>
</svg>
