<svg xmlns="http://www.w3.org/2000/svg" width="92" height="86" viewBox="0 0 92 86">
    <g fill="none" fill-rule="evenodd" stroke-linejoin="round">
        <g stroke-width="2">
            <g>
                <g>
                    <g>
                        <path stroke="#222829" d="M45.094 48.563L21.969 71.688 19.656 71.688 28.906 48.563 28.906 16.188 34.688 0 39.313 0 45.094 16.188 45.094 48.563 54.344 71.688 52.031 71.688 28.906 48.563" transform="translate(-974 -1890) translate(932 1837) translate(42 53) translate(9 7)"/>
                        <path stroke="#222829" d="M25.438 30.063L15.031 30.063 28.906 16.188 45.094 16.188 58.969 30.063 48.563 30.063M25.438 46.25L15.031 46.25 28.906 32.375 45.094 32.375 58.969 46.25 48.563 46.25" transform="translate(-974 -1890) translate(932 1837) translate(42 53) translate(9 7)"/>
                        <path stroke="#D0313F" d="M54.344 46.25L54.344 49.719M58.969 46.25L58.969 49.719M54.344 30.063L54.344 33.531M58.969 30.063L58.969 33.531M15.031 46.25L15.031 49.719M19.656 46.25L19.656 49.719M15.031 30.063L15.031 33.531M19.656 30.063L19.656 33.531M45.094 48.563L28.906 32.375M28.906 48.563L45.094 32.375M28.906 32.375L45.094 16.188M45.094 32.375L28.906 16.188M0 71.688L74 71.688" transform="translate(-974 -1890) translate(932 1837) translate(42 53) translate(9 7)"/>
                    </g>
                </g>
            </g>
        </g>
    </g>
</svg>
