<svg xmlns="http://www.w3.org/2000/svg" width="15" height="15" viewBox="0 0 15 15">
    <g fill="none" fill-rule="evenodd" opacity=".605">
        <g fill="#000">
            <g>
                <path d="M6.176.322c.706-.43 1.589-.43 2.295 0l5.126 3.134c.653.398 1.05 1.109 1.05 1.874v7.235c0 1.213-.98 2.197-2.197 2.197H2.197C.988 14.762 0 13.778 0 12.565V5.33c0-.765.397-1.476 1.05-1.874L6.176.322zm1.527 1.25c-.23-.143-.53-.143-.759 0L2.206 4.469l4.65 3.835c.273.223.662.223.935 0l4.659-3.835-4.747-2.895zm5.48 4.186L10.42 8.034l2.761 2.763V5.758zm-3.9 3.211l-.565.464c-.812.67-1.977.67-2.789 0l-.564-.464-3.856 3.853c.106.278.37.475.688.475H12.45c.318 0 .582-.197.688-.475L9.282 8.969zm-5.057-.935L1.465 5.758v5.039l2.761-2.763z" transform="translate(-533 -501) translate(533 501)"/>
            </g>
        </g>
    </g>
</svg>
