<svg xmlns="http://www.w3.org/2000/svg" width="64" height="52" viewBox="0 0 64 52">
    <g fill="none" fill-rule="evenodd">
        <g stroke-width="2">
            <g>
                <path stroke="#222829" d="M57 18.5c0 3.5-1.963 6.5-5 6.5s-5-3-5-6.5 1-5.5 5-5.5 5 2 5 5.5zM44 27L49 24" transform="translate(-219 -1281) translate(220 1282)"/>
                <path stroke="#222829" d="M55 24l7 4v2c0 1.656-1 3-2 3h-6M5 18.5C5 22 6.963 25 10 25s5-3 5-6.5-1-5.5-5-5.5-5 2-5 5.5zM18 27L13 24" transform="translate(-219 -1281) translate(220 1282)"/>
                <path stroke="#222829" d="M7 24l-7 4v2c0 1.656 1 3 2 3h6" transform="translate(-219 -1281) translate(220 1282)"/>
                <path stroke="#D0313F" d="M9 51v-9c0-10 7-9 14-13M39 29c7 4 14 3 14 13v9M35 33L31 31 27 33 23 29 25 26 31 27 37 26 39 29z" transform="translate(-219 -1281) translate(220 1282)"/>
                <path stroke="#1D2329" d="M36 22L36 26M26 26L26 22" transform="translate(-219 -1281) translate(220 1282)"/>
                <path stroke="#222829" d="M30 40L32 40M30 36L32 36" transform="translate(-219 -1281) translate(220 1282)"/>
                <path stroke="#D0313F" d="M40 9c0-6.075-2.925-9-9-9s-9 2.925-9 9v4c1 7 4 9 4 9 2 1 5 1 5 1s3 0 5-1c0 0 3-2 4-9V9z" transform="translate(-219 -1281) translate(220 1282)"/>
                <path stroke="#D0313F" d="M22 9L26 7 31 9 36 11 40 9M17 51L17 43M45 51L45 43" transform="translate(-219 -1281) translate(220 1282)"/>
            </g>
        </g>
    </g>
</svg>
