<svg xmlns="http://www.w3.org/2000/svg" width="36" height="36" viewBox="0 0 36 36">
    <g fill="none" fill-rule="evenodd" opacity=".7">
        <g fill="#FFF">
            <g>
                <path d="M141.157 14.487c.007.152.011.304.011.458 0 4.67-3.714 10.055-10.507 10.055-2.086 0-4.026-.585-5.661-1.587.29.032.583.048.88.048 1.731 0 3.323-.564 4.588-1.512-1.617-.028-2.98-1.05-3.45-2.454.225.04.456.062.694.062.337 0 .663-.043.973-.123-1.69-.324-2.962-1.753-2.962-3.465v-.045c.498.264 1.068.424 1.673.442-.99-.634-1.643-1.716-1.643-2.941 0-.648.182-1.256.5-1.778 1.822 2.138 4.543 3.546 7.612 3.693-.063-.258-.096-.529-.096-.805 0-1.952 1.654-3.535 3.693-3.535 1.063 0 2.022.43 2.695 1.117.842-.159 1.632-.453 2.346-.858-.276.825-.862 1.518-1.624 1.956.747-.086 1.458-.276 2.121-.557-.495.709-1.122 1.33-1.843 1.83M134 0c-9.942 0-18 8.058-18 18 0 9.94 8.058 18 18 18s18-8.06 18-18c0-9.942-8.058-18-18-18" transform="translate(-439 -6084) translate(323 6084)"/>
            </g>
        </g>
    </g>
</svg>
