<svg xmlns="http://www.w3.org/2000/svg" width="36" height="36" viewBox="0 0 36 36">
    <g fill="none" fill-rule="evenodd" opacity=".7">
        <g fill="#FFF">
            <g>
                <path d="M23 11.988l-1.631.001c-1.28 0-1.528.631-1.528 1.557v2.043h3.052l-.398 3.2h-2.654V27h-3.18v-8.21H14v-3.2h2.66v-2.36c0-2.74 1.61-4.23 3.962-4.23 1.127 0 2.095.087 2.378.126v2.862zM18 0C8.06 0 0 8.058 0 18c0 9.94 8.06 18 18 18 9.942 0 18-8.06 18-18 0-9.942-8.058-18-18-18z" transform="translate(-323 -6084) translate(323 6084)"/>
            </g>
        </g>
    </g>
</svg>
