<svg xmlns="http://www.w3.org/2000/svg" width="36" height="36" viewBox="0 0 36 36">
    <g fill="none" fill-rule="evenodd">
        <g fill="#D0313F">
            <path d="M408 6111h-3.848v-6.169c0-1.47-.025-3.363-2-3.363-2.002 0-2.308 1.603-2.308 3.259V6111H396v-12.685h3.689v1.735h.053c.513-.998 1.77-2.05 3.642-2.05 3.896 0 4.616 2.627 4.616 6.043V6111zm-15.498-13c-1.385 0-2.502-1.12-2.502-2.5s1.117-2.5 2.502-2.5c1.378 0 2.498 1.12 2.498 2.5s-1.12 2.5-2.498 2.5zm1.498 13h-4v-12h4v12zm5-27c-9.942 0-18 8.058-18 18 0 9.94 8.058 18 18 18s18-8.06 18-18c0-9.942-8.058-18-18-18z" transform="translate(-381 -6084)"/>
        </g>
    </g>
</svg>
