<svg xmlns="http://www.w3.org/2000/svg" width="34" height="34" viewBox="0 0 34 34">
    <g fill="none" fill-rule="evenodd">
        <g>
            <g>
                <g>
                    <path fill="#FFF" stroke="#444" d="M16 0C7.163 0 0 7.163 0 16c0 8.836 7.163 16 16 16 8.836 0 16-7.164 16-16 0-8.837-7.164-16-16-16" opacity=".4" transform="translate(-150 -390) translate(145 182) translate(6 209)"/>
                    <g fill="#D63240" fill-rule="nonzero">
                        <path d="M12.891 8.1l-2.53-3.55 2.247-1.53c.22-.149.296-.482.171-.744-.125-.262-.405-.354-.624-.204L7.5 5.242l-4.655-3.17c-.22-.15-.499-.058-.624.204s-.049.595.17.745L4.64 4.55 2.109 8.1c-.164.23-.14.574.052.77.193.195.482.167.645-.062L5.448 5.1l1.825 1.243c.14.096.313.096.454 0l1.825-1.243 2.642 3.707c.164.23.452.257.645.062.192-.196.216-.54.052-.77z" transform="translate(-150 -390) translate(145 182) translate(6 209) translate(9 11)"/>
                        <path d="M13.682 0H1.318C.591 0 0 .634 0 1.414v8.172C0 10.366.591 11 1.318 11h12.364C14.409 11 15 10.366 15 9.586V1.414C15 .634 14.409 0 13.682 0zm.44 9.586c0 .26-.198.471-.44.471H1.318c-.242 0-.44-.211-.44-.471V1.414c0-.26.198-.471.44-.471h12.364c.242 0 .44.211.44.471v8.172z" transform="translate(-150 -390) translate(145 182) translate(6 209) translate(9 11)"/>
                    </g>
                </g>
            </g>
        </g>
    </g>
</svg>
