<svg xmlns="http://www.w3.org/2000/svg" width="36" height="36" viewBox="0 0 36 36">
    <g fill="none" fill-rule="evenodd" opacity=".7">
        <g fill="#FFF">
            <g>
                <g>
                    <path d="M27 18.68c0 1.456-.18 2.913-.18 2.913s-.175 1.24-.715 1.787c-.684.716-1.452.72-1.804.761-2.519.183-6.301.188-6.301.188s-4.68-.043-6.12-.18c-.4-.075-1.3-.053-1.985-.77-.54-.546-.715-1.786-.715-1.786S9 20.136 9 18.68v-1.366c0-1.457.18-2.913.18-2.913s.175-1.24.716-1.787c.683-.717 1.45-.72 1.803-.762 2.519-.182 6.298-.182 6.298-.182h.006s3.78 0 6.298.182c.352.041 1.12.045 1.804.761.54.547.715 1.788.715 1.788s.18 1.456.18 2.913v1.366zM18 0C8.058 0 0 8.058 0 18c0 9.94 8.058 18 18 18s18-8.06 18-18c0-9.942-8.058-18-18-18z" transform="translate(-497 -6084) translate(323 6084) translate(174)"/>
                    <path d="M16.001 21L21 18.509 16 16z" transform="translate(-497 -6084) translate(323 6084) translate(174)"/>
                </g>
            </g>
        </g>
    </g>
</svg>
