<svg xmlns="http://www.w3.org/2000/svg" width="36" height="36" viewBox="0 0 36 36">
    <g fill="none" fill-rule="evenodd" opacity=".7">
        <g fill="#FFF">
            <g>
                <g>
                    <path d="M18.5 22c1.933 0 3.5-1.567 3.5-3.5S20.433 15 18.5 15 15 16.567 15 18.5s1.567 3.5 3.5 3.5M21.586 15h2.828c.323 0 .586-.262.586-.585v-2.83c0-.323-.263-.585-.586-.585h-2.828c-.323 0-.586.262-.586.585v2.83c0 .323.263.585.586.585" transform="translate(-553 -6084) translate(323 6084) translate(230)"/>
                    <path d="M27 24.865C27 26.044 26.043 27 24.86 27H11.14C9.959 27 9 26.044 9 24.865v-13.73C9 9.954 9.959 9 11.14 9h13.72c1.183 0 2.14.955 2.14 2.134v13.73zM18 0C8.058 0 0 8.058 0 18c0 9.94 8.058 18 18 18s18-8.06 18-18c0-9.942-8.058-18-18-18z" transform="translate(-553 -6084) translate(323 6084) translate(230)"/>
                    <path d="M23.61 18.387c0 2.892-2.292 5.246-5.11 5.246-2.818 0-5.11-2.354-5.11-5.246 0-.48.063-.945.182-1.387H12v7.517c0 .267.21.483.47.483h12.06c.26 0 .47-.216.47-.483V17h-1.572c.119.442.182.907.182 1.387" transform="translate(-553 -6084) translate(323 6084) translate(230)"/>
                </g>
            </g>
        </g>
    </g>
</svg>
