<svg xmlns="http://www.w3.org/2000/svg" xmlns:xlink="http://www.w3.org/1999/xlink" width="188" height="37" viewBox="0 0 188 37">
    <defs>
        <path id="zr55pslkra" d="M0.331 0.561L13.736 0.561 13.736 24.981 0.331 24.981z"/>
        <path id="ygt24xsx8c" d="M0 0.561L23.337 0.561 23.337 35.833 0 35.833z"/>
        <path id="2mchhog3ye" d="M0.529 0.561L28.45 0.561 28.45 35.833 0.529 35.833z"/>
        <path id="pq3fc93lig" d="M0.432 0.051L17.46 0.051 17.46 14 0.432 14z"/>
    </defs>
    <g fill="none" fill-rule="evenodd">
        <g>
            <g>
                <g transform="translate(-1641 -887) translate(1641 887) translate(16 .44)">
                    <mask id="3kdmf1ifrb" fill="#fff">
                        <use xlink:href="#zr55pslkra"/>
                    </mask>
                    <path fill="#FEFDFD" d="M.33 24.98L8.816.56h3.645L8.689 11.343h2.137c2.2 0 3.33.943 2.766 2.828-.566 1.886-3.771 10.81-3.771 10.81H6.113L9.82 14.423c.126-.63.126-1.194-.63-1.194h-1.13L3.913 24.98H.33z" mask="url(#3kdmf1ifrb)"/>
                </g>
                <path fill="#FEFDFD" d="M37.896 14.56s-2.649 7.511-2.712 7.89c-.063.38-.379 1.073-1.009 1.073h-1.59l3.42-9.91h1.576c.567 0 .504.442.315.947m1.01-2.84H33.04l-8.452 24.552h3.595l3.747-10.855h3.317c2.65 0 3.09-1.01 3.595-2.462l2.712-7.7c.946-2.589-.883-3.536-2.649-3.536" transform="translate(-1641 -887) translate(1641 887)"/>
                <g transform="translate(-1641 -887) translate(1641 887) translate(0 .44)">
                    <mask id="2539goey3d" fill="#fff">
                        <use xlink:href="#ygt24xsx8c"/>
                    </mask>
                    <path fill="#FEFDFD" d="M23.337 32.64C16.8 30.536 12.1 24.748 12.1 18.188c0-5.766 4.081-11.585 9.53-14.477L22.763.56H4.711C2.11.56.001 2.678.001 5.28v25.815c0 2.603 2.108 4.737 4.71 4.737h17.485l1.141-3.193z" mask="url(#2539goey3d)"/>
                </g>
                <g transform="translate(-1641 -887) translate(1641 887) translate(29 .44)">
                    <mask id="kaziex99kf" fill="#fff">
                        <use xlink:href="#2mchhog3ye"/>
                    </mask>
                    <path fill="#FEFDFD" d="M1.537.56h22.19c2.609 0 4.723 2.076 4.723 4.686V31.13c0 2.61-2.114 4.703-4.722 4.703H1.41l.95-2.847c7.919-1.166 13.962-7.348 13.962-14.798 0-8.014-6.995-14.561-15.794-14.974L1.537.56z" mask="url(#kaziex99kf)"/>
                </g>
                <path fill="#FEFDFD" d="M176.492 27.295v3.962c0 1.195-.63 2.265-1.761 2.265h-6.036v-8.114h6.287c.944 0 1.572 1.006 1.51 1.887m-.691-4.78h-10.313v13.9h10.249c3.71 0 3.962-3.586 3.962-5.535v-4.088c0-2.453-1.259-4.277-3.899-4.277M157.781 29.433h-5.802v-4.04h5.424c1.577 0 1.893 1.2 1.893 1.894 0 .695-.316 2.146-1.514 2.146m3.278 1.578c.757-.631 1.261-1.578 1.261-4.102 0-2.84-1.953-4.418-4.225-4.418h-9.27v13.948h3.154v-4.103h5.424c1.26 0 1.892 1.01 1.892 1.578v2.525h3.025v-2.902c0-.822-.251-2.021-1.26-2.526M135.287 31.005l2.703-5.91 2.692 5.91h-5.395zm4.777-8.487h-4.148l-5.595 11.945v1.95h2.515l1.132-2.515H142l1.145 2.514h3.27l-6.35-13.894zM115.742 36.426L115.742 22.503 118.953 22.503 118.953 27.733 120.338 27.733 125.816 22.503 130.096 22.503 123.359 29.056 128.964 34.6 128.964 36.426 126.572 36.426 120.59 30.63 118.953 30.63 118.953 36.426zM98.868 25.791v7.348c0 1.444.879 3.265 3.264 3.265h7.662c1.76 0 3.204-1.193 3.204-3.265v-1.256h-3.14c0 .628-.127 1.633-1.32 1.633h-5.463c-.377 0-1.005-.252-1.005-1.256v-5.528s-.188-1.255 1.068-1.255h5.526c.502 0 1.067.942 1.13 1.57h3.204v-1.194c0-1.193-1.194-3.265-3.204-3.328h-7.724c-1.507 0-3.202 1.696-3.202 3.266" transform="translate(-1641 -887) translate(1641 887)"/>
                <g transform="translate(-1641 -887) translate(1641 887) translate(80 22.44)">
                    <mask id="blmc5091vh" fill="#fff">
                        <use xlink:href="#pq3fc93lig"/>
                    </mask>
                    <path fill="#FEFDFD" d="M6.297 8.572l2.71-5.933 2.65 5.933h-5.36zM11.089.05H6.927L.432 14h3.405l1.135-2.525h8.058L14.18 14h3.28L11.089.05z" mask="url(#blmc5091vh)"/>
                </g>
                <path fill="#FEFDFD" d="M76.076 29.622H69.91v-4.216h5.975c1.574 0 1.574 1.51 1.574 2.14 0 .63 0 2.076-1.384 2.076m.755-7.11H66.701v13.906h3.209v-3.9h6.92c1.886 0 4.025-1.072 4.025-4.972 0-3.965-2.328-5.034-4.025-5.034M66.702 1.227L66.702 15.134 69.91 15.134 69.91 9.597 78.277 9.597 78.277 15.134 81.485 15.134 81.485 1.227 78.277 1.227 78.277 6.702 69.91 6.702 69.91 1.227zM97.692 1.218H86.987c-1.45 0-2.204.819-2.204 2.08v10.018c0 .819.755 1.828 2.015 1.828h10.894v-2.899h-9.697V9.598h8.06V6.7h-8.06V4.117h9.697V1.218zM123.54 1.232v11.822c0 1.07.817 2.075 2.264 2.075h9.43v-2.892h-8.487V1.232h-3.207zM160.07 15.145L160.07 4.116 164.762 4.116 164.762 1.217 152.228 1.217 152.228 4.116 156.857 4.116 156.857 15.145zM174.923 15.153L174.923 4.111 179.62 4.111 179.62 1.208 167.073 1.208 167.073 4.111 171.707 4.111 171.707 15.153zM149.873 1.224h-10.698c-1.448 0-2.202.818-2.202 2.078v10.01c0 .819.754 1.826 2.013 1.826h10.887v-2.896h-9.69V9.598h8.054V6.702h-8.055V4.12h9.691V1.224zM114.776 15.158c-.946 0-1.861-1.42-2.051-2.115L110.36 5.75l-3.092 9.41h-1.955c-.946 0-1.766-1.453-1.956-2.148l-3.85-11.808h3.219l2.965 9.535 3.154-9.472h3.029l3.154 9.472 2.965-9.535h3.218l-4.542 13.955h-1.893zM185.864 6.143c-.521.527-1.154.79-1.9.79-.744 0-1.376-.263-1.898-.79-.518-.527-.777-1.164-.777-1.912 0-.74.26-1.375.782-1.899.523-.526 1.155-.79 1.894-.79.742 0 1.375.264 1.899.79.52.524.78 1.158.78 1.9 0 .747-.26 1.384-.78 1.911m.31-4.112c-.61-.606-1.345-.909-2.21-.909-.857 0-1.59.303-2.195.91-.61.608-.914 1.341-.914 2.2 0 .866.302 1.604.905 2.213.607.611 1.34.917 2.205.917.864 0 1.6-.306 2.209-.917.609-.612.913-1.35.913-2.214 0-.86-.304-1.594-.913-2.2" transform="translate(-1641 -887) translate(1641 887)"/>
                <path fill="#FEFDFD" d="M184.427 4.087c-.127.051-.318.077-.573.077h-.544v-1.24h.514c.334 0 .578.042.729.127.151.085.227.252.227.501 0 .264-.118.442-.353.535zm.927 1.806c-.015-.029-.025-.088-.031-.179-.005-.09-.007-.175-.007-.255v-.25c0-.173-.063-.35-.188-.53-.124-.182-.321-.295-.59-.337.212-.034.378-.089.496-.166.224-.144.336-.369.336-.675 0-.43-.176-.719-.531-.867-.198-.082-.509-.123-.934-.123h-1.198v3.424h.603v-1.35h.476c.32 0 .544.036.671.11.215.127.323.39.323.786v.271l.013.111.008.038.009.034h.565l-.021-.042z" transform="translate(-1641 -887) translate(1641 887)"/>
            </g>
        </g>
    </g>
</svg>
