<svg xmlns="http://www.w3.org/2000/svg" width="17" height="17" viewBox="0 0 17 17">
    <g fill="none" fill-rule="evenodd">
        <g fill="#D0313F" fill-rule="nonzero">
            <g>
                <g>
                    <path d="M6.917 12.063l4.75-3.563-4.75-3.563v7.125zM8.5.582C4.13.583.583 4.13.583 8.5c0 4.37 3.547 7.917 7.917 7.917 4.37 0 7.917-3.547 7.917-7.917C16.417 4.13 12.87.583 8.5.583zm0 14.25c-3.491 0-6.333-2.842-6.333-6.333S5.009 2.167 8.5 2.167s6.333 2.842 6.333 6.333-2.842 6.333-6.333 6.333z" transform="translate(-323 -1811) translate(323 1806) translate(0 5)"/>
                </g>
            </g>
        </g>
    </g>
</svg>
