<svg xmlns="http://www.w3.org/2000/svg" width="17" height="15" viewBox="0 0 17 15">
    <g fill="none" fill-rule="evenodd">
        <g fill="#43484D">
            <path d="M295.018 808h-3.379v1.667H305.259V808h-10.24zm10.241 3.334h-4.301v.833c0 .92-.717 1.667-1.639 1.667h-1.74c-.922 0-1.64-.747-1.64-1.667v-.833h-4.3V816.333H305.259V811.334zm-7.68 0v.833h1.74v-.833h-1.74zm4.3-5h3.38c.922 0 1.741.746 1.741 1.666v8.333c0 .921-.82 1.667-1.741 1.667h-13.62c-.922 0-1.639-.746-1.639-1.667V808c0-.92.717-1.667 1.639-1.667h3.38v-.833c0-1.38 1.126-2.5 2.56-2.5h1.74c1.434 0 2.56 1.12 2.56 2.5v.833zm-1.74 0h-3.38v-.834c0-.46.41-.832.82-.833h1.74c.41 0 .82.373.82.833v.833z" transform="translate(-290 -803)"/>
        </g>
    </g>
</svg>
