<svg xmlns="http://www.w3.org/2000/svg" width="26" height="14" viewBox="0 0 26 14">
    <g fill="none" fill-rule="evenodd">
        <g fill="#43484D">
            <g>
                <path d="M39.309 22.763l4.055-4.056c.39-.39.39-1.024 0-1.414-.39-.39-1.024-.39-1.414 0l-5.657 5.657c-.24.239-.332.569-.278.878-.054.31.039.64.278.88l5.657 5.656c.39.39 1.023.39 1.414 0 .39-.39.39-1.024 0-1.414l-4.187-4.187h21.336c.552 0 1-.448 1-1 0-.553-.448-1-1-1H39.309z" transform="translate(-761 -2561) translate(725 2544)"/>
            </g>
        </g>
    </g>
</svg>
