<svg xmlns="http://www.w3.org/2000/svg" width="17" height="17" viewBox="0 0 17 17">
    <g fill="none" fill-rule="evenodd">
        <g fill="#646464">
            <g>
                <g>
                    <path d="M12.57 8.422l-3.74 5.442L5.07 8.44c-.62-1.226-.69-2.687-.18-3.972C6.34.747 11.24.734 12.72 4.456c.51 1.279.46 2.739-.15 3.966zm1.37.786l-4.22 6.418-.04.084-.4.592c-.2.398-.72.4-.92.004L8 15.717l-.04-.083L3.7 9.237c-.84-1.673-.93-3.667-.24-5.419 1.99-5.083 8.67-5.092 10.69-.019.69 1.744.62 3.734-.21 5.409zM9.61 6.114c0 .461-.35.836-.78.837-.43.001-.77-.372-.78-.833 0-.462.35-.837.78-.838.43-.001.77.372.78.834zm1.55-.004c0 1.384-1.04 2.509-2.32 2.512-1.29.003-2.33-1.116-2.34-2.501 0-1.384 1.04-2.508 2.32-2.512 1.29-.003 2.33 1.117 2.34 2.501z" transform="translate(-898 -1157) translate(718 1088) translate(180 69)"/>
                </g>
            </g>
        </g>
    </g>
</svg>
