<svg xmlns="http://www.w3.org/2000/svg" width="92" height="86" viewBox="0 0 92 86">
    <g fill="none" fill-rule="evenodd">
        <g fill-rule="nonzero">
            <g>
                <g>
                    <g>
                        <path fill="#1D2329" d="M63.342 5.414c-.398-.164-.858-.073-1.163.232L49.067 18.758V1.067C49.067.477 48.59 0 48 0H24.533C11.005 0 0 11.006 0 24.533c0 11.609 8.172 21.562 19.322 23.97L5.646 62.18c-.305.305-.397.764-.232 1.163.165.398.555.658.986.658h56.533c.59 0 1.067-.478 1.067-1.067V6.4c0-.43-.26-.82-.658-.986zM25.6 2.182c5.337.254 10.233 2.382 13.986 5.79L25.6 21.957V2.182zM26.667 25.6v15.558l-3.2 3.2V25.6h3.2zm2.133 0H32v10.225l-3.2 3.2V25.6zm5.333 0h3.2v4.892l-3.2 3.2V25.6zm5.334 0h2.758l-2.758 2.758V25.6zm4.891-2.133h-17.25L41.093 9.482c2.896 3.176 4.893 7.193 5.57 11.68l-2.305 2.305zM42.604 7.97l4.33-4.33v10.904c-1.088-2.432-2.557-4.644-4.33-6.574zm2.821-5.838l-4.332 4.332c-1.95-1.784-4.185-3.247-6.623-4.332h10.955zm-21.958.055v21.279H2.187c.546-11.499 9.781-20.734 21.28-21.28zM16 25.6v19.64c-1.119-.462-2.183-1.018-3.2-1.646V25.6H16zm-10.667 0v10.451c-1.859-3.093-2.97-6.664-3.15-10.451h3.15zm2.134 13.408V25.6h3.2v16.517c-1.172-.926-2.237-1.972-3.2-3.109zm10.666 6.98V25.6h3.2v20.892l-.17.17c-1.037-.155-2.047-.383-3.03-.675zM61.867 8.974V54.4h-6.4c-.59 0-1.067.478-1.067 1.067v6.4H8.975L61.867 8.975zm-5.334 52.892v-5.334h5.334v5.334h-5.334z" transform="translate(-974 -1437) translate(932 1384) translate(42 53) translate(14 11)"/>
                        <path fill="#D0313F" d="M11.733 13.242v7.025h2.134V12.8H16v4.267c0 .165.038.33.112.476l1.067 2.134c.181.361.55.59.954.59H19.2v-2.134h-.407l-.66-1.318V12.8h2.134v-2.133h-8.534c-.283 0-.554.112-.754.312l-2.133 2.134 1.508 1.508 1.38-1.38z" transform="translate(-974 -1437) translate(932 1384) translate(42 53) translate(14 11)"/>
                    </g>
                </g>
            </g>
        </g>
    </g>
</svg>
