<svg xmlns="http://www.w3.org/2000/svg" width="92" height="86" viewBox="0 0 92 86">
    <g fill="none" fill-rule="evenodd">
        <g stroke-width="2">
            <g>
                <g>
                    <g>
                        <path stroke="#222829" d="M42.968 48.774c0-1.825 1.41-3.308 3.2-3.455-.572-3.821-2.067-7.33-4.262-10.306-.628.61-1.48.987-2.422.987C37.56 36 36 34.44 36 32.516c0-.943.377-1.794.987-2.422-2.975-2.195-6.485-3.69-10.306-4.261-.147 1.788-1.63 3.2-3.455 3.2-1.826 0-3.309-1.412-3.455-3.2-3.822.571-7.331 2.066-10.306 4.26.61.629.987 1.48.987 2.423C10.452 34.44 8.89 36 6.968 36c-.943 0-1.794-.377-2.423-.987C2.35 37.988.855 41.498.285 45.319c1.788.147 3.199 1.63 3.199 3.455 0 1.826-1.411 3.309-3.2 3.455.572 3.822 2.066 7.331 4.261 10.306.629-.61 1.48-.987 2.423-.987 1.923 0 3.484 1.561 3.484 3.484 0 .943-.378 1.794-.987 2.423 2.975 2.195 6.484 3.69 10.306 4.26.146-1.788 1.63-3.199 3.455-3.199 1.825 0 3.308 1.411 3.455 3.2 3.821-.572 7.33-2.066 10.306-4.261-.61-.629-.987-1.48-.987-2.423 0-1.923 1.56-3.484 3.484-3.484.943 0 1.794.378 2.422.987 2.195-2.975 3.69-6.484 4.261-10.306-1.788-.146-3.2-1.63-3.2-3.455z" transform="translate(-192 -1127) translate(150 1074) translate(42 53) translate(10 7)"/>
                        <path stroke="#222829" d="M33.677 48.774c0 5.773-4.678 10.452-10.451 10.452-5.773 0-10.452-4.679-10.452-10.452s4.679-10.451 10.452-10.451S33.677 43 33.677 48.774z" transform="translate(-192 -1127) translate(150 1074) translate(42 53) translate(10 7)"/>
                        <path stroke="#D0313F" d="M26.71 48.774c0 1.924-1.56 3.484-3.484 3.484s-3.484-1.56-3.484-3.484 1.56-3.484 3.484-3.484 3.484 1.56 3.484 3.484z" transform="translate(-192 -1127) translate(150 1074) translate(42 53) translate(10 7)"/>
                        <path stroke="#1D2329" d="M68.516 17.42c0-1.806 1.379-3.274 3.14-3.45-.46-2.289-1.367-4.416-2.63-6.287-.497.276-1.061.446-1.671.446-1.923 0-3.484-1.56-3.484-3.484 0-.61.17-1.174.446-1.67-1.87-1.264-3.998-2.17-6.286-2.63-.177 1.76-1.645 3.139-3.45 3.139-1.806 0-3.274-1.38-3.45-3.14-2.288.46-4.416 1.367-6.287 2.63.277.497.446 1.061.446 1.671 0 1.923-1.56 3.484-3.484 3.484-.61 0-1.174-.17-1.67-.446-1.264 1.87-2.17 3.998-2.63 6.286 1.76.177 3.14 1.645 3.14 3.45 0 1.806-1.38 3.274-3.14 3.45.46 2.288 1.366 4.416 2.63 6.287.496-.277 1.06-.446 1.67-.446 1.924 0 3.484 1.56 3.484 3.484 0 .61-.17 1.174-.446 1.67 1.871 1.264 3.999 2.17 6.286 2.63.177-1.76 1.645-3.14 3.45-3.14 1.806 0 3.274 1.38 3.45 3.14 2.289-.46 4.416-1.366 6.287-2.63-.276-.496-.446-1.06-.446-1.67 0-1.924 1.56-3.484 3.484-3.484.61 0 1.174.17 1.67.446 1.264-1.871 2.17-3.999 2.63-6.286-1.76-.177-3.139-1.645-3.139-3.45z" transform="translate(-192 -1127) translate(150 1074) translate(42 53) translate(10 7)"/>
                        <path stroke="#D0313F" d="M59.226 17.42c0 2.565-2.08 4.645-4.645 4.645-2.566 0-4.646-2.08-4.646-4.646 0-2.565 2.08-4.645 4.646-4.645 2.565 0 4.645 2.08 4.645 4.645zM0 32.516v-1.161C1.197 12.555 19.22 0 38.323 0h2.322M39.484 72h1.161C59.445 70.803 72 52.78 72 33.677v-2.322" transform="translate(-192 -1127) translate(150 1074) translate(42 53) translate(10 7)"/>
                    </g>
                </g>
            </g>
        </g>
    </g>
</svg>
