<svg xmlns="http://www.w3.org/2000/svg" xmlns:xlink="http://www.w3.org/1999/xlink" width="176" height="26" viewBox="0 0 176 26">
    <defs>
        <path id="r2c58gk3ba" d="M0 25.934L175.748 25.934 175.748 0 0 0z"/>
    </defs>
    <g fill="none" fill-rule="evenodd">
        <g>
            <g transform="translate(-1886 -893) translate(1886 893)">
                <path fill="#F6F6F6" d="M42.08 7.43h6.5l.286 2.144c.5-1.715 3.787-2.93 5.787-2.93 4.644 0 6.501 2.858 6.501 7.859V25.29H53.94v-9.645c0-1.93-.358-3.358-2.286-3.358-1.786 0-2.716 1.929-2.716 3.287v9.716H42.08V7.43zM11.216 11.645c1.93 0 4-.429 4-2.643 0-2.286-2.213-2.786-4-2.786H8.002v5.429h3.214zM.002 25.362V.071h12.072c7.216 0 10.503 3.501 10.503 8.574 0 5.429-3 9.144-10.503 9.144H8.002v7.573h-8zM121.523 7.43h6.573l.214 2.144c.571-1.715 3.858-2.93 5.86-2.93 4.571 0 6.5 2.858 6.5 7.859v10.86h-7.216v-9.717c0-1.93-.428-3.358-2.358-3.358-1.715 0-2.643 1.929-2.643 3.287v9.788h-6.93V7.43zM88.374 18.933c0 .714.357 1.786.786 2.143.5.357 1.144.714 1.929.714 1.286 0 2.286-.357 2.286-1.572.072-3-10.86-.356-10.86-7.501 0-5.001 3.859-6.144 7.86-6.144 4 0 9.502.786 9.287 6.215H93.59c0-.5-.215-.856-.5-1.286-.43-.5-.93-.714-1.858-.785-1.214-.072-2.358.143-2.358 1.07.07 2.788 11.288.93 11.288 7.502 0 4.574-3.215 6.645-9.431 6.645-3.928-.071-8.858-2.071-8.858-7.001h6.5zM162.317 14.36c0-.429 0-1-.57-1.715-.287-.357-.93-1.143-1.93-1.143-2.716 0-3.43 2.643-3.43 4.787 0 2.5 1.143 4.572 3.286 4.572 1.858 0 2.787-1.715 2.787-3.144h6.287c.142 3.715-2.429 8.145-9.36 8.145-5.643 0-9.644-3.93-9.644-9.645 0-6.93 5.144-9.573 9.573-9.573 6.001 0 9.431 3.644 9.36 7.716h-6.359zM74.157 17.146c-2.429 1.143-5.572 1.072-5.572 2.857 0 1.145.571 1.715 2.072 1.715 2.286 0 3.643-2.428 3.5-4.572zm.572 8.216l-.715-1.5c-1.357 1.143-2.857 1.786-5.072 1.786-2.286-.072-6.644-.357-6.644-5.145 0-7.857 11.716-4.285 11.788-8.143 0-1.287-1.501-1.214-2.215-1.214-1.5 0-2.358.284-2.572 2.428h-6.001c0-3.714 1.071-6.859 9.002-6.859 7.572 0 8.358 4.002 8.358 7.93v8.146c0 1.072.072 1.572.786 2.357v.143l-6.715.072zm-40.865-8.215c-2.43 1.143-5.501 1.07-5.573 2.857 0 1.143.643 1.714 2.072 1.714 2.357 0 3.644-2.428 3.501-4.572zm.571 8.216l-.715-1.5c-1.356 1.142-2.786 1.785-5.072 1.785-2.214-.072-6.572-.357-6.572-5.145 0-7.857 11.716-4.285 11.716-8.143 0-1.287-1.428-1.214-2.215-1.214-1.428 0-2.357.284-2.571 2.428h-6.002c0-3.714 1.144-6.859 9.002-6.859 7.645 0 8.43 4.002 8.43 7.93v8.146c0 1.072.072 1.572.786 2.357v.143l-6.787.072z"/>
                <mask id="rrym7nkijb" fill="#fff">
                    <use xlink:href="#r2c58gk3ba"/>
                </mask>
                <path fill="#F6F6F6" d="M141.956 5.144h6.645V0h-6.645v5.144zm-.001 20.219h6.645V7.43h-6.645v17.933zM107.664 16.36c0 2.215.714 4.93 3.144 5.001 2.428 0 3.07-2.786 3.07-5 0-2.145-.642-4.93-3.07-4.93-2.43 0-3.073 2.785-3.144 4.93m3.144-9.574c5.929 0 9.573 4.143 9.573 9.573 0 5.501-3.644 9.573-9.573 9.573-5.93 0-9.646-4.072-9.646-9.573 0-5.43 3.716-9.573 9.646-9.573M170.318 22.075c0-1.5 1.215-2.714 2.715-2.714 1.5 0 2.715 1.214 2.715 2.714 0 1.501-1.215 2.715-2.715 2.715-1.5 0-2.715-1.214-2.715-2.715zm5.108.036c0-1.357-1.07-2.429-2.357-2.429-1.357 0-2.429 1.072-2.429 2.43 0 1.285 1.072 2.357 2.43 2.357 1.285 0 2.356-1.072 2.356-2.358zm-1.036 1.465h-.428l-.857-1.429h-.715v1.43h-.357v-3.073h1.286c.574 0 1.085.172 1.085.857 0 .571-.37.786-.942.786l.928 1.43zm-1.428-1.715c.428 0 1.071.071 1.071-.5 0-.5-.429-.57-.785-.57h-.858v1.07h.572z" mask="url(#rrym7nkijb)"/>
            </g>
        </g>
    </g>
</svg>
