<svg xmlns="http://www.w3.org/2000/svg" xmlns:xlink="http://www.w3.org/1999/xlink" width="57" height="47" viewBox="0 0 57 47">
    <defs>
        <path id="fmvb98lj3a" d="M4 45.5L56 45.5 56 0 0 0z"/>
    </defs>
    <g fill="none" fill-rule="evenodd">
        <g>
            <g transform="translate(-395 -1375) translate(395 1376)">
                <path stroke="#222829" stroke-width="2" d="M51.938 44.688L8.063 44.688 4.813 41.438 4.813 39.813 24.313 39.813 25.938 41.438 34.063 41.438 35.688 39.813 55.188 39.813 55.188 41.438zM11.313 7.313H10.5c-1.345 0-2.438 1.09-2.438 2.437v27.625M51.938 37.375V9.75c0-1.346-1.093-2.438-2.438-2.438h-.813M46.25 30.063L32.438 30.063 30.813 31.688 29.188 31.688 27.563 30.063 13.75 30.063 13.75.813 27.563.813 29.188 2.438 30.813 2.438 32.438.813 46.25.813z"/>
                <path stroke="#D54D59" stroke-width="2" d="M30 2.438L30 31.688M16.188 15.438L27.563 15.438M16.188 18.688L27.563 18.688M16.188 21.938L27.563 21.938M16.188 25.188L27.563 25.188M32.438 18.688L43.813 18.688M32.438 21.938L43.813 21.938M32.438 25.188L43.813 25.188M32.438 5.688L43.813 5.688M32.438 8.938L43.813 8.938M37.313 13.813L38.938 13.813M34.063 13.813L35.688 13.813M40.563 13.813L42.188 13.813"/>
                <mask id="lki17g7z2b" fill="#fff">
                    <use xlink:href="#fmvb98lj3a"/>
                </mask>
                <path stroke="#222829" stroke-width="2" d="M17 12.188L26.75 12.188 26.75 5.688 17 5.688zM38.938 34.938L51.938 34.938M8.063 34.938L21.063 34.938M29.188 34.938L30.813 34.938M25.938 34.938L27.563 34.938M22.688 34.938L24.313 34.938M32.438 34.938L34.063 34.938M35.688 34.938L37.313 34.938" mask="url(#lki17g7z2b)"/>
            </g>
        </g>
    </g>
</svg>
