<svg xmlns="http://www.w3.org/2000/svg" width="16" height="16" viewBox="0 0 16 16">
    <g fill="none" fill-rule="evenodd">
        <g fill="#D0313F">
            <g>
                <path d="M1078.305 102.19c0-1.208-1.085-2.19-2.44-2.19-1.085 0-2.17.982-2.17 2.19v3.288h-3.254c-1.356 0-2.441.979-2.441 2.19 0 1.208 1.085 2.19 2.44 2.19h3.255v3.285c0 1.209 1.085 2.19 2.17 2.19 1.355 0 2.44-.981 2.44-2.19v-3.285h3.254c1.356 0 2.441-.982 2.441-2.19 0-1.211-1.085-2.19-2.44-2.19h-3.255v-3.288z" transform="translate(-1218 -2480) translate(150 2380)"/>
            </g>
        </g>
    </g>
</svg>
