<svg xmlns="http://www.w3.org/2000/svg" width="17" height="17" viewBox="0 0 17 17">
    <g fill="none" fill-rule="evenodd" opacity=".607">
        <g fill="#000">
            <g>
                <path d="M4.11 10.123c-.7 0-1.26.58-1.26 1.295 0 .716.56 1.296 1.26 1.296.69 0 1.26-.58 1.26-1.296 0-.715-.57-1.295-1.26-1.295zm4.2 0c-.7 0-1.26.58-1.26 1.295 0 .716.56 1.296 1.26 1.296.69 0 1.26-.58 1.26-1.296 0-.715-.57-1.295-1.26-1.295zm2.93 1.295c0-.715.57-1.295 1.26-1.295.7 0 1.26.58 1.26 1.295 0 .716-.56 1.296-1.26 1.296-.69 0-1.26-.58-1.26-1.296zm-7.13 2.591c-.7 0-1.26.58-1.26 1.296 0 .715.56 1.295 1.26 1.295.69 0 1.26-.58 1.26-1.295 0-.716-.57-1.296-1.26-1.296zm2.94 1.296c0-.716.56-1.296 1.26-1.296.69 0 1.26.58 1.26 1.296 0 .715-.57 1.295-1.26 1.295-.7 0-1.26-.58-1.26-1.295zm5.45-1.296c-.69 0-1.26.58-1.26 1.296 0 .715.57 1.295 1.26 1.295.7 0 1.26-.58 1.26-1.295 0-.716-.56-1.296-1.26-1.296zM15.02 6.572l-2.55-.686c.02-.239.04-.488.07-.756.03-.23.05-.474.07-.738.05-.655-.35-1.238-.94-1.426-3.13-.997-5.62-.418-6.66-.072-.62.208-.94.828-.89 1.424l.14 1.605v.002l-.01.003v.002c-.65.136-1.55.334-2.35.542-.44-.679-.53-1.232-.49-1.672.06-.463.28-.893.6-1.285.65-.783 1.59-1.267 1.81-1.37.26-.079 1.74-.497 3.58-.648 1.91-.156 4.08-.017 5.75.947 1.21.704 1.74 1.518 1.94 2.234.19.692.11 1.372-.07 1.894zm1.27.632c-.27.698-.99.933-1.57.778l-2.66-.718c-.53-.145-1.02-.647-.99-1.339.01-.297.05-.685.09-1.046.02-.198.04-.388.05-.551-2.67-.838-4.79-.371-5.69-.083l.13 1.561c.07.737-.42 1.393-1.11 1.538-.65.134-1.52.329-2.3.53-.51.134-1.12-.034-1.47-.556C.15 6.38-.07 5.473.02 4.627c.09-.832.48-1.52.92-2.053C1.81 1.525 3.02.932 3.24.826 3.3.8 3.35.781 3.4.764 3.67.683 5.27.224 7.28.059c2-.163 4.52-.049 6.55 1.128 1.49.866 2.29 1.967 2.6 3.096.32 1.11.15 2.164-.14 2.921z" transform="translate(-531 -459) translate(531 459)"/>
            </g>
        </g>
    </g>
</svg>
