<svg xmlns="http://www.w3.org/2000/svg" width="18" height="30" viewBox="0 0 18 30">
    <g fill="none" fill-rule="evenodd">
        <g>
            <g>
                <g fill="#000" fill-rule="nonzero" stroke="#000" stroke-width=".5" opacity=".5">
                    <path d="M16 16.93v-.766c0-.804-.708-1.494-1.625-1.494H8.417v-1.225h5.208c.125 0 .208-.039.292-.115.083-.077.125-.192.125-.268l-.292-7.93C13.667 2.26 11.125 0 7.958 0 4.792 0 2.292 2.26 2.167 5.133l-.292 7.929c0 .114.042.191.125.268.083.076.167.115.292.115h5.291v1.225H1.625C.75 14.67 0 15.321 0 16.164v.766c0 .805.708 1.494 1.625 1.494h5.958v3.984l-5.375 1.915s-.041 0-.041.038c-.125-.038-.25-.038-.375-.038-.75 0-1.334.536-1.334 1.226 0 .689.584 1.225 1.334 1.225.75 0 1.333-.536 1.333-1.225 0-.23-.083-.46-.208-.613l4.666-1.686v2.375c-.5.192-.875.613-.875 1.15 0 .689.584 1.225 1.334 1.225.75 0 1.333-.536 1.333-1.226 0-.536-.417-.996-.958-1.149v-2.451l4.833 1.723c-.125.192-.208.383-.208.613 0 .69.583 1.226 1.333 1.226s1.333-.536 1.333-1.226-.583-1.225-1.333-1.225c-.125 0-.25.038-.375.076l-.042-.038-5.541-1.954v-3.907-.076h6c.875 0 1.583-.651 1.583-1.456zM3.042 5.133C3.125 2.68 5.292.728 8 .728s4.833 1.915 4.958 4.405l.25 7.546H2.792l.25-7.546zm-1.25 20.799c-.292 0-.5-.192-.5-.46s.208-.46.5-.46c.291 0 .5.192.5.46s-.209.46-.5.46zm13.125-.422c0 .268-.209.46-.5.46-.292 0-.5-.192-.5-.46s.208-.46.5-.46c.291 0 .5.192.5.46zm-6.875 1.686c-.292 0-.5-.192-.5-.46s.208-.46.5-.46c.291 0 .5.192.5.46s-.209.46-.5.46zM.833 16.93v-.766c0-.383.334-.728.792-.728h12.792c.416 0 .791.307.791.728v.766c0 .383-.333.728-.791.728H1.625c-.458-.038-.792-.345-.792-.728z" transform="translate(-665 -2235) translate(666 2236)"/>
                </g>
                <path fill="#D0313F" d="M-3 -12H29V14H-3z" transform="translate(-665 -2235) translate(666 2236)"/>
            </g>
        </g>
    </g>
</svg>
