<svg xmlns="http://www.w3.org/2000/svg" width="29" height="23" viewBox="0 0 29 23">
    <g fill="none" fill-rule="evenodd">
        <g>
            <g>
                <g fill="#000" fill-rule="nonzero" opacity=".5">
                    <g>
                        <path d="M18.877 1.077v15.615c0 .62-.68 1.009-1.227.702-2.898-1.627-5.674-2.86-8.327-3.702l-.398-.123c-.007.598.01 1.195.053 1.79.035.491.078.867.143 1.251.054.32.104.564.26 1.283.288 1.323-.736 2.549-2.19 2.791-.1.017-.2.029-.3.036-1.462.1-2.773-.83-2.867-2.163-.007-.098-.007-.197 0-.295.053-.734.068-.983.076-1.306.01-.39 0-.767-.035-1.26-.071-1.006-.214-2.008-.427-3.006-.022-.1-.024-.2-.008-.296-.854-.123-1.72-.216-2.597-.28-.428-.032-.76-.384-.76-.806V6.462c0-.43.342-.784.778-.807 2.635-.138 5.392-.663 8.272-1.578 2.888-.916 5.66-2.148 8.316-3.695.547-.319 1.238.07 1.238.695zM5.307 12.666l.03.15c.178.919.3 1.841.366 2.768.038.54.05.969.038 1.411-.009.358-.025.622-.08 1.381v.068c.027.372.499.707 1.115.664.047-.003.094-.009.14-.016.594-.1.937-.51.86-.861-.162-.745-.215-1.004-.274-1.357-.074-.436-.123-.862-.162-1.403-.055-.783-.071-1.568-.047-2.356-.653-.165-1.315-.312-1.984-.44l-.003-.01zm17.11.18l.061.056 3.034 3.105c.315.321.304.833-.022 1.142-.307.29-.783.3-1.1.034l-.06-.056-3.035-3.106c-.314-.321-.304-.833.023-1.142.306-.29.782-.299 1.1-.034zM17.236 2.466c-2.382 1.287-4.851 2.336-7.409 3.148-1.669.53-3.303.936-4.902 1.217v4.13c1.674.289 3.308.686 4.902 1.192 2.385.757 4.855 1.813 7.409 3.167V2.467zM3.283 7.078c-.459.057-.915.103-1.368.14v3.347c.46.043.915.093 1.369.151V7.078zm24.623.73c.453 0 .82.361.82.807 0 .446-.367.808-.82.808h-4.378c-.453 0-.82-.362-.82-.808 0-.446.367-.807.82-.807h4.378zM25.49.495c.326.309.337.82.022 1.142l-3.034 3.105c-.314.321-.833.331-1.16.022-.327-.309-.337-.82-.023-1.142L24.33.517c.314-.321.834-.331 1.16-.022z" transform="translate(-861 -2239) translate(861 2239.268) translate(0 .732)"/>
                    </g>
                </g>
                <path fill="#D0313F" d="M20.274 -6H29.274V25H20.274z" transform="translate(-861 -2239) translate(861 2239.268)"/>
            </g>
        </g>
    </g>
</svg>
