<svg xmlns="http://www.w3.org/2000/svg" width="32" height="23" viewBox="0 0 32 23">
    <g fill="none" fill-rule="evenodd">
        <g fill-rule="nonzero">
            <g>
                <g>
                    <g>
                        <path fill="#222829" d="M23.32 4.781c-.385 0-.77.026-1.15.077-.848-.375-1.765-.567-2.692-.564-.154 0-.31.005-.464.016C17.39 1.153 13.856-.53 10.381.2 6.906.93 4.347 3.89 4.129 7.435c-1.114.362-2.096 1.047-2.822 1.968C.47 10.472.012 11.79.007 13.149l-.006.2-.001.035c-.005 1.234.482 2.419 1.355 3.291.872.873 2.057 1.36 3.291 1.355h11.31c1.582 2.547 4.366 4.098 7.363 4.1 4.787 0 8.681-3.888 8.681-8.674 0-4.787-3.894-8.675-8.68-8.675zM4.645 16.768c-.898.005-1.762-.35-2.398-.985-.636-.636-.99-1.5-.986-2.398l.007-.209v-.017c.001-1.079.364-2.126 1.03-2.975.65-.828 1.562-1.41 2.587-1.65.287-.067.49-.322.49-.617 0-3.13 2.193-5.833 5.256-6.48 3.063-.647 6.16.939 7.427 3.802.114.258.386.409.665.37.25-.035.501-.053.753-.053.082 0 .164.002.246.006-3.094 1.406-5.082 4.49-5.085 7.887-.003 1.14.223 2.268.666 3.319H4.646zM23.32 20.88c-4.097 0-7.418-3.322-7.418-7.419 0-4.097 3.321-7.418 7.418-7.418 4.097 0 7.419 3.321 7.419 7.418-.005 4.095-3.323 7.414-7.419 7.419z" transform="translate(-1012 -2484) translate(688 2425) translate(63 55) translate(261 4)"/>
                        <path fill="#D54D59" d="M25.243 13.592L23.89 14.89v-4.344c0-.348-.283-.631-.632-.631-.348 0-.63.283-.63.631v4.344l-1.322-1.297c-.119-.116-.28-.18-.445-.178-.167.003-.325.072-.44.193-.241.25-.233.65.018.892l2.41 2.334c.245.237.635.237.88 0l2.408-2.334c.248-.245.25-.644.006-.892-.245-.251-.647-.257-.9-.015z" transform="translate(-1012 -2484) translate(688 2425) translate(63 55) translate(261 4)"/>
                    </g>
                </g>
            </g>
        </g>
    </g>
</svg>
