<svg xmlns="http://www.w3.org/2000/svg" width="27" height="14" viewBox="0 0 27 14">
    <g fill="none" fill-rule="evenodd">
        <g fill="#43484D">
            <g>
                <g>
                    <path d="M59.067 22.763l-4.026-4.026c-.39-.39-.39-1.023 0-1.414l.06-.06c.39-.39 1.024-.39 1.415 0l5.656 5.657c.247.246.338.59.273.908.065.319-.026.662-.273.91l-5.656 5.656c-.39.39-1.024.39-1.415 0l-.06-.06c-.39-.39-.39-1.024 0-1.414l4.157-4.157H37c-.552 0-1-.448-1-1 0-.553.448-1 1-1h22.067z" transform="translate(-1228 -2561) translate(725 2544) translate(467)"/>
                </g>
            </g>
        </g>
    </g>
</svg>
