<svg xmlns="http://www.w3.org/2000/svg" xmlns:xlink="http://www.w3.org/1999/xlink" width="161" height="25" viewBox="0 0 161 25">
    <defs>
        <path id="77crwj1u9a" d="M0 0.696L15.538 0.696 15.538 23.999 0 23.999z"/>
    </defs>
    <g fill="none" fill-rule="evenodd">
        <g>
            <g>
                <path fill="#FEFEFE" d="M87.87 11.894s-1.56-.964-2.525-1.337c0 0-2.984-1.383-3.577-2.04 0 0-1.16-1.097-.48-2.37 0 0 .283-.833 1.513-.833 0 0 1.6.088 1.6 1.404v1.855h5.734l-.01-2.733s.44-4.474-6.755-4.67c0 0-5.658-.373-7.28 2.675 0 0-.638.68-.638 3.048v1.711s-.065 1.974.943 3.246c0 0 .571.833 1.975 1.753 0 0 2.851 1.537 4.562 2.415 0 0 1.727.985 1.5 2.554 0 0-.14 1.611-1.809 1.545 0 0-1.525-.069-1.525-1.648v-1.855h-6.11v2.695s-.172 5.15 7.681 5.15c0 0 7.501.153 7.851-5.286V16.98s.264-3.333-2.65-5.086M58.514 1.81L56.593 13.842 56.145 13.842 54.31 1.918 44.731 1.918 44.252 23.706 49.923 23.706 49.992 7.289 50.438 7.289 53.444 23.702 59.41 23.702 62.379 7.295 62.773 7.295 62.91 23.706 68.612 23.706 67.998 1.81zM24.756 1.901L20.983 23.682 27.088 23.682 29.322 6.794 29.824 6.794 32.059 23.682 38.163 23.682 34.391 1.901zM152.858 11.594v3.214h1.565v3.449c0 1.685-1.44 1.716-1.44 1.716-1.753 0-1.687-1.602-1.687-1.602V6.44c0-1.23 1.555-1.295 1.555-1.295 1.493 0 1.504 1.466 1.504 1.466v1.814h5.747c.188-3.54-.517-4.397-.517-4.397-1.426-3.203-6.82-3.027-6.82-3.027-8.29 0-7.37 6.36-7.37 6.36v11.535c.178 5.965 8.345 5.359 8.484 5.352 3.633-.402 4.73-1.556 4.73-1.556 1.01-.75 1.27-1.787 1.27-1.787.289-.606.362-2.535.362-2.535v-6.777h-7.383zM133.805 15.139L133.555 15.139 127.72 1.816 120.743 1.816 120.743 23.71 126.422 23.71 126.082 10.388 126.335 10.388 132.378 23.71 139.147 23.71 139.147 1.814 133.396 1.814zM106.876 18.254s.083 1.797-1.582 1.797c0 0-1.754.094-1.754-1.753l-.018-16.469h-6.23v16.338s-.639 6.185 8.088 6.185c0 0 7.585.09 7.585-5.9V1.828h-6.089v16.425z" transform="translate(-1816 -804) translate(1816 804)"/>
                <g transform="translate(-1816 -804) translate(1816 804) translate(0 .46)">
                    <mask id="lhntgkwtkb" fill="#fff">
                        <use xlink:href="#77crwj1u9a"/>
                    </mask>
                    <path fill="#FEFEFE" d="M12.878 11.434s-1.557-.964-2.522-1.337c0 0-2.982-1.381-3.574-2.041 0 0-1.163-1.097-.482-2.367 0 0 .284-.833 1.512-.833 0 0 1.601.087 1.601 1.402v1.855h5.736l-.01-2.733S15.575.906 8.382.71c0 0-.542-.035-1.337.005 0 0-4.356.234-5.914 2.624-.009.017-.022.03-.03.047 0 0-.637.678-.637 3.048v1.71S.4 10.118 1.41 11.39c0 0 .57.833 1.974 1.754 0 0 2.85 1.535 4.56 2.413 0 0 1.73.986 1.501 2.556 0 0-.14 1.61-1.807 1.545 0 0-1.526-.07-1.526-1.65v-1.854H.001v2.695s-.172 5.15 7.68 5.15c0 0 7.5.154 7.851-5.286v-2.191s.263-3.334-2.654-5.088" mask="url(#lhntgkwtkb)"/>
                </g>
            </g>
        </g>
    </g>
</svg>
