<svg xmlns="http://www.w3.org/2000/svg" width="27" height="27" viewBox="0 0 27 27">
    <g fill="none" fill-rule="evenodd" opacity=".3">
        <g fill="#000" fill-rule="nonzero">
            <g transform="translate(-152 -1872) translate(152 1872)">
                <path d="M0 14L7 14 7 18 0 18zM0 11.667V13h7v-2H.875c-.483 0-.875.298-.875.667zM0 26.143c0 .473.298.857.667.857H2v-8H0v7.143zM5 19L7 19 7 27 5 27zM26.125 11H20v2h7v-1.333c0-.369-.392-.667-.875-.667zM20 14L27 14 27 18 20 18zM20 26.143L20 27 22 27 22 19 20 19zM25 27h1.333c.369 0 .667-.384.667-.857V19h-2v8zM14 22v5h2v-2.93c0-.954-.836-1.768-2-2.07zM11 24.07V27h2v-5c-1.164.302-2 1.116-2 2.07z"/>
                <path d="M18.581 8.49l-4.295-3.243V3.955h.524c1.73 0 3.138-1.415 3.142-3.157.001-.439-.35-.798-.785-.798H13.5c-.434 0-.786.354-.786.791v4.456L8.42 8.49c-.264.2-.419.512-.419.844V27h1.571v-3.164c0-2.18 1.763-3.955 3.929-3.955s3.929 1.774 3.929 3.955V27H19V9.334c0-.332-.155-.645-.419-.844zm-7.438 8.622c0 .437-.352.791-.786.791-.434 0-.786-.354-.786-.79V15.53c0-.437.352-.79.786-.79.434 0 .786.353.786.79v1.582zm3.143 0c0 .437-.352.791-.786.791-.434 0-.786-.354-.786-.79V15.53c0-.437.352-.79.786-.79.434 0 .786.353.786.79v1.582zM13.5 13.29c-1.3 0-2.357-1.064-2.357-2.373 0-1.308 1.057-2.373 2.357-2.373 1.3 0 2.357 1.065 2.357 2.373 0 1.309-1.057 2.373-2.357 2.373zm3.929 3.823c0 .437-.352.791-.786.791-.434 0-.786-.354-.786-.79V15.53c0-.437.352-.79.786-.79.434 0 .786.353.786.79v1.582z"/>
                <circle cx="14" cy="11" r="1"/>
            </g>
        </g>
    </g>
</svg>
