<svg xmlns="http://www.w3.org/2000/svg" width="24" height="24" viewBox="0 0 24 24">
    <g fill="none" fill-rule="evenodd">
        <g fill="#6D6E71" fill-rule="nonzero">
            <g>
                <g>
                    <g>
                        <path d="M14.312 13.464L10.13 9.28C10.922 8.3 11.4 7.056 11.4 5.7 11.4 2.557 8.843 0 5.7 0 2.557 0 0 2.557 0 5.7c0 3.143 2.557 5.7 5.7 5.7 1.356 0 2.601-.478 3.58-1.271l4.184 4.183c.117.117.307.117.424 0l.424-.424c.117-.117.117-.307 0-.424zM5.7 10.2c-2.481 0-4.5-2.019-4.5-4.5s2.019-4.5 4.5-4.5 4.5 2.019 4.5 4.5-2.019 4.5-4.5 4.5z" transform="translate(-1053 -449) translate(155 408) translate(296 33) translate(602 8) translate(4.8 4.8)"/>
                    </g>
                </g>
            </g>
        </g>
    </g>
</svg>
