<svg xmlns="http://www.w3.org/2000/svg" width="15" height="15" viewBox="0 0 15 15">
    <g fill="none" fill-rule="evenodd" opacity=".906">
        <g fill="#43484D">
            <path d="M1130.921 506.768c.502.3 1.105.31 1.607.025l1.506-.833c.603-.292.904-.852.904-1.46v-5.242l4.519-4.39c.502-.472.703-1.193.401-1.824-.2-.63-.803-1.044-1.506-1.044h-11.648c-.703 0-1.306.414-1.607 1.044-.2.63-.1 1.352.402 1.824l4.619 4.39v6.076c0 .589.301 1.134.803 1.434zm2.31-2.268l-1.506.834v-6.432c0-.15 0-.296-.1-.422 0-.066-.101-.125-.101-.178l-4.82-4.635h11.648l-4.82 4.635c-.1.053-.1.112-.1.178-.1.126-.201.273-.201.422v5.598z" transform="translate(-1125 -492)"/>
        </g>
    </g>
</svg>
