<svg xmlns="http://www.w3.org/2000/svg" width="15" height="17" viewBox="0 0 15 17">
    <g fill="none" fill-rule="evenodd">
        <g fill="#43484D">
            <g>
                <path d="M36.5 120h10c1.376 0 2.5-1.142 2.5-2.55V105.55c0-1.408-1.124-2.55-2.5-2.55h-10c-1.386 0-2.5 1.142-2.5 2.55v11.9c0 1.408 1.114 2.55 2.5 2.55zm10.833-2.55c0 .47-.371.85-.833.85h-10c-.462 0-.833-.38-.833-.85v-11.9c0-.47.371-.85.833-.85h10c.462 0 .833.38.833.85V117.45zM39 106.4c-.924 0-1.667.762-1.667 1.7v.85c0 .939.743 1.7 1.667 1.7h5c.914 0 1.667-.761 1.667-1.7v-.85c0-.938-.753-1.7-1.667-1.7h-5zm0 1.7h5v.85h-5v-.85zm-1.667 5.1c0-.47.372-.85.834-.85h6.666c.462 0 .834.38.834.85s-.372.85-.834.85h-6.666c-.462 0-.834-.38-.834-.85zm.834 1.7c-.462 0-.834.38-.834.85s.372.85.834.85h6.666c.462 0 .834-.38.834-.85s-.372-.85-.834-.85h-6.666z" transform="translate(-184 -2483) translate(150 2380)"/>
            </g>
        </g>
    </g>
</svg>
