<svg xmlns="http://www.w3.org/2000/svg" xmlns:xlink="http://www.w3.org/1999/xlink" width="139" height="21" viewBox="0 0 139 21">
    <defs>
        <path id="80yr9oph5a" d="M0 0.62L27.227 0.62 27.227 21 0 21z"/>
    </defs>
    <g fill="none" fill-rule="evenodd">
        <g>
            <g>
                <path fill="#FEFEFE" d="M137.005 20.759c-.974 0-1.758-.786-1.758-1.764 0-.97.784-1.754 1.758-1.754.97 0 1.755.785 1.755 1.754 0 .978-.786 1.764-1.755 1.764m0-3.759c-1.11 0-2.005.895-2.005 1.995 0 1.11.895 2.005 2.005 2.005 1.105 0 1.995-.896 1.995-2.005 0-1.1-.89-1.995-1.995-1.995" transform="translate(-1432 -803) translate(1432 803)"/>
                <path fill="#FEFEFE" d="M137.39 19.328h-.236v-1.061h.36c.158 0 .33.056.33.52 0 .611-.276.54-.453.54m.609-.533c0-.253-.047-.52-.142-.647-.094-.132-.2-.147-.307-.147H137v3h.154v-1.385h.284l.361 1.385h.183l-.381-1.385c.225-.013.399-.231.399-.82M125.256 11.387c-2.014 0-4.336-.171-6-.772V4.693c2.101-.172 5.431-.3 6.394-.3.963 0 5.955.214 5.997 3.39.043 3.304-4.377 3.604-6.39 3.604m-.352-10.384c-2.1 0-8.01.214-11.905.773V21h6.256v-6.952c.788.257 5.3.686 6.875.686 1.577 0 12.869-.471 12.869-7.037 0-7.038-11.994-6.694-14.095-6.694" transform="translate(-1432 -803) translate(1432 803)"/>
                <g transform="translate(-1432 -803) translate(1432 803)">
                    <mask id="ocabk7eybb" fill="#fff">
                        <use xlink:href="#80yr9oph5a"/>
                    </mask>
                    <path fill="#FEFEFE" d="M20.67 9.055c-1.612-.36-7.682-1.336-9.27-1.545-2.088-.25-3.299-.626-3.299-1.795 0-1.587 3.087-1.313 5.596-1.212 3.09.126 8.895 2.047 10.565 2.756l1.963-4.3C23.009 1.37 16.829.62 12.904.62 10.064.661.577 1.331.459 6.382c-.083 3.592 3.06 4.895 7.057 5.888 3.425.71 7.225 1.044 9.814 1.587 3.317.696 3.3 3.048.668 3.3-4.54.33-12.235-1.922-15.743-3.676L0 18.074C4.886 20.456 12.443 21.031 15.033 21c3.34-.042 12.194-.376 12.194-5.68 0-3.491-3.007-5.47-6.556-6.264" mask="url(#ocabk7eybb)"/>
                </g>
                <path fill="#FEFEFE" d="M48.413 9.99L35.588 9.99 35.588 3 29 3 29 21 35.588 21 35.588 13.606 48.413 13.606 48.413 21 55 21 55 3 48.413 3zM64.624 13.285l3.918-6.469 4.028 6.469h-7.946zM73.75 3h-7.793L55 21h4.916l2.541-4.1h12.366l2.552 4.1H85L73.75 3zM112.452 7.405c-.045-7.033-11.855-6.39-13.895-6.39-2.04 0-7.776.215-11.557.773V21h6.164V4.704c2.21-.172 5.35-.3 6.285-.3.935 0 5.737-.172 5.78 3.302.04 3.302-4.462 3.345-6.417 3.345-1.232 0-2.252-.257-3.314-.515l-1.148 1.973L103.868 21H113l-8.286-7.352c3.517-.714 7.763-2.373 7.738-6.243" transform="translate(-1432 -803) translate(1432 803)"/>
            </g>
        </g>
    </g>
</svg>
