<svg xmlns="http://www.w3.org/2000/svg" xmlns:xlink="http://www.w3.org/1999/xlink" width="152" height="23" viewBox="0 0 152 23">
    <defs>
        <path id="h3opzedhla" d="M0 23L151.937 23 151.937 0.692 0 0.692z"/>
    </defs>
    <g fill="none" fill-rule="evenodd">
        <g>
            <g>
                <path fill="#FEFEFE" d="M0 1L0 6.079 6.854 6.079 6.854 23 12.782 23 12.782 6.079 20 6.079 20 1z" transform="translate(-1607 -802) translate(1607 802)"/>
                <g transform="translate(-1607 -802) translate(1607 802)">
                    <path fill="#FEFEFE" d="M28.671 13.213c0 3.098.067 4.745 3.756 4.745 4.056 0 4.687-.989 4.687-4.745 0-1.054.033-2.141.033-3.196 0-2.933-.465-4.251-3.656-4.251-4.653 0-4.72.461-4.82 6.129v1.318zm-5.783-6.557c.898-5.174 5.55-5.932 10.004-5.932 7.646 0 10.338 1.879 10.338 9.82 0 8.14-.2 12.456-10.171 12.456-3.956 0-8.675-.297-10.004-4.812-.433-1.482-.467-3.03-.467-4.58v-1.614c0-1.746 0-3.592.3-5.338zM60.61 7.71c0-2.24-.798-2.537-2.926-2.537h-.598c-1.562 0-3.224.066-3.224 2.01 0 1.352.398 1.977 1.828 2.076 5.152.429 11.234-.593 11.234 6.491 0 1.878 0 4.252-1.562 5.57-1.828 1.515-4.354 1.647-6.68 1.647h-1.463c-6.116 0-9.307-.264-9.307-7.25h5.65c0 1.648.4 2.636 2.26 2.636h2.56c1.496 0 2.693-.197 2.693-2.174 0-1.944-1.164-1.944-2.826-2.043-6.414-.428-10.304.164-10.304-7.15 0-3.823 1.53-5.834 5.485-6.13C54.726.758 56.022.693 57.32.693c5.152 0 8.973.098 8.973 6.326 0 .231-.032.462-.032.693h-5.65zM91.176 22.835L85.227 22.835 85.227 14.202 77.516 14.202 77.516 22.835 71.566 22.835 71.566.856 77.516.856 77.516 9.16 85.227 9.16 85.227.856 91.176.856z"/>
                    <mask id="06hssmgcgb" fill="#fff">
                        <use xlink:href="#h3opzedhla"/>
                    </mask>
                    <path fill="#FEFEFE" d="M96.845 22.835L102.794 22.835 102.794.857 96.845.857zM118.405 17.991c1.862 0 3.224-.032 3.224-2.175 0-2.042-.964-2.108-2.824-2.108h-4.355v4.283h3.955zm-.165-8.336c1.628-.066 3.057.131 3.057-1.878 0-1.583-.432-2.077-2.027-2.077h-4.82v3.955h3.79zM108.5.857h12.065c4.024 0 6.616 1.087 6.616 5.6 0 2.539-.233 4.58-3.458 5.108v.198c2.992.264 3.823 1.846 3.823 4.746 0 4.942-1.661 6.326-6.88 6.326H108.5V.857zM138.205 14.17l2.564-8.93 2.598 8.93h-5.162zm7.684 8.665h6.048L145.19.857h-9.007l-6.647 21.978h6.182l1.268-4.415h7.619l1.285 4.415z" mask="url(#06hssmgcgb)"/>
                </g>
            </g>
        </g>
    </g>
</svg>
