<svg xmlns="http://www.w3.org/2000/svg" xmlns:xlink="http://www.w3.org/1999/xlink" width="153" height="18" viewBox="0 0 153 18">
    <defs>
        <path id="wbasmje5wa" d="M0 0L152.137 0 152.137 17.936 0 17.936z"/>
    </defs>
    <g fill="none" fill-rule="evenodd">
        <g>
            <g transform="translate(-903 -804) translate(903 804)">
                <mask id="rvgfyy09nb" fill="#fff">
                    <use xlink:href="#wbasmje5wa"/>
                </mask>
                <path fill="#FFF" d="M138.409 2.223c-2.757 0-5 3.028-5 6.745s2.243 6.745 5 6.745c2.756 0 5-3.028 5-6.745s-2.244-6.745-5-6.745zm0-2.223c7.569 0 13.729 4.029 13.729 8.968s-6.16 8.968-13.73 8.968c-7.568 0-13.728-4.03-13.728-8.968 0-4.94 6.16-8.968 13.729-8.968zm-36.056 17.46h9.028l8.078-13.372c1.31-2.17 3.41-2.912 5.914-2.912h.194V.094h-12.813v1.082h1.176c2.758 0 3.13.543 2.52 1.509l-6.896 10.93-6.137-10.07c-.607-.994-.891-1.387-.396-1.725.555-.378 1.21-.644 3.312-.644h.78V.094h-18.82v1.082h.396c2.248 0 4.219.4 5.326 2.263l8.338 14.02zM50.115 2.223c2.756 0 5 3.028 5 6.745s-2.244 6.745-5 6.745c-2.757 0-5-3.028-5-6.745s2.243-6.745 5-6.745zm0-2.223c-7.57 0-13.728 4.029-13.728 8.968s6.159 8.968 13.728 8.968 13.729-4.03 13.729-8.968c0-4.94-6.16-8.968-13.73-8.968zm42.23 9.532v7.712H66.02v-1.077h.996c2.766.069 4.148-.575 4.148-1.941V3.118c0-1.298-1.323-1.942-3.955-1.942h-.986V.094h17.193v1.082H81.83c-2.63 0-3.885.644-3.751 1.942v11.324c0 1.036.584 1.292 2.57 1.292h5.566c.664 0 4.188-2.641 4.056-6.202h2.074zM14.059 17.46L5.722 3.439C4.614 1.576 2.642 1.176.396 1.176H0V.094h18.82v1.082h-.781c-2.101 0-2.757.266-3.312.644-.494.338-.211.73.396 1.725l6.137 10.07 6.897-10.93c.61-.966.237-1.51-2.521-1.51H24.46V.095h12.813v1.082h-.194c-2.503 0-4.604.742-5.914 2.912L23.087 17.46h-9.028z" mask="url(#rvgfyy09nb)"/>
            </g>
        </g>
    </g>
</svg>
