<svg xmlns="http://www.w3.org/2000/svg" width="17" height="17" viewBox="0 0 17 17">
    <g fill="none" fill-rule="evenodd">
        <g fill="#656565" fill-rule="nonzero">
            <g>
                <g>
                    <path d="M7.5 14.881h-.003c-1.17 0-2.33-.276-3.37-.8L.92 14.81c-.195.044-.4-.015-.543-.156-.142-.141-.202-.346-.159-.542l.695-3.157C.317 9.853.002 8.646 0 7.45v-.012c0-1.984.785-3.851 2.208-5.26C3.628.775 5.508 0 7.5 0c1.997 0 3.873.775 5.284 2.18C14.214 3.605 15 5.474 15 7.443c0 1.489-.447 2.927-1.29 4.16-.183.266-.548.335-.815.152-.267-.183-.335-.547-.152-.814.71-1.038 1.085-2.247 1.085-3.498 0-1.655-.664-3.23-1.872-4.432C10.767 1.826 9.184 1.173 7.5 1.17c-3.484 0-6.32 2.806-6.328 6.256v.011c0 1.068.3 2.15.869 3.132.073.126.097.276.065.42l-.544 2.472 2.515-.572c.139-.032.284-.012.41.056.918.5 1.96.763 3.01.763H7.5c1.142 0 2.265-.309 3.245-.893.278-.166.638-.075.803.203.166.278.075.638-.203.804-1.162.692-2.491 1.058-3.845 1.058zM5.845 4.46c-.128-.285-.264-.295-.386-.3H5.13c-.114 0-.3.043-.457.214-.157.171-.6.585-.6 1.426s.614 1.654.7 1.768c.086.114 1.187 1.896 2.93 2.581 1.45.57 1.744.457 2.059.428.315-.028 1.015-.414 1.158-.813.143-.399.143-.741.1-.813-.043-.07-.157-.114-.329-.2-.171-.085-1.012-.505-1.17-.562-.157-.057-.271-.086-.386.085-.114.171-.45.567-.551.68-.1.115-.2.13-.372.044-.171-.086-.718-.27-1.374-.852-.51-.454-.863-1.031-.964-1.203-.1-.17-.01-.263.076-.349.077-.076.18-.18.267-.28.085-.1.11-.172.167-.286.057-.114.029-.214-.014-.3-.043-.085-.372-.93-.525-1.268" transform="translate(-171 -1420) translate(171 1420) translate(1 1)"/>
                </g>
            </g>
        </g>
    </g>
</svg>
